<svg width="286" height="280" viewBox="0 0 286 280" fill="none" xmlns="http://www.w3.org/2000/svg">
<g clip-path="url(#clip0_653_671)">
<path d="M210.633 0.565812C210.633 0.565812 -18.1404 124.589 1.16538 152.149C20.4711 179.71 285.06 300.97 285.06 262.392C285.06 223.814 249.211 -13.2145 210.633 0.565812Z" fill="white" fill-opacity="0.08"/>
<path d="M113.937 24.6315C108.712 28.3262 105.05 33.7851 102.986 39.8431C91.0369 75.0595 40.8086 228.407 67.171 239.724C95.3973 251.807 159.306 -7.48927 113.937 24.6315Z" fill="#20D091"/>
<path d="M158.24 109.61C158.24 109.61 120.028 193.124 140.133 192.092C160.238 191.093 170.323 139.767 187.399 138.768C204.508 137.77 160.238 280.599 161.236 276.605" stroke="#DEE9EE" stroke-width="3" stroke-miterlimit="10" stroke-linecap="round"/>
</g>
<defs>
<clipPath id="clip0_653_671">
<rect width="285.026" height="280" fill="white"/>
</clipPath>
</defs>
</svg>
