<svg width="100" height="100" viewBox="0 0 100 100" fill="none" xmlns="http://www.w3.org/2000/svg">
<rect x="100" y="100" width="100" height="100" rx="50" transform="rotate(-180 100 100)" fill="#197BFF"/>
<path d="M64.1645 60.4346C64.2118 60.4347 65.1151 59.8934 66.1716 59.2318C67.2282 58.5701 68.0718 57.9893 68.0466 57.9411C68.0212 57.893 67.5138 57.2078 66.9188 56.4185C65.7243 54.8334 64.5743 52.7379 64.0646 51.2178C62.4764 46.4802 63.2074 41.5607 66.0897 37.5898L66.8236 36.5785L65.4264 35.1813L64.0291 33.784L63.1055 34.4422C57.0547 38.7544 49.8023 38.2582 43.3725 33.0923C42.9527 32.7549 42.5937 32.4946 42.5747 32.5136C42.4 32.6883 40.2022 36.2818 40.2027 36.3918C40.2031 36.4714 40.5875 36.7968 41.0569 37.1148C46.2541 40.6363 52.2006 41.7845 56.7972 40.1543L57.8998 39.7633L42.5704 55.1485L32.8771 64.8771L35.7048 67.7048L45.4585 57.9866L60.8075 42.6935L60.3424 44.1141C59.1356 47.7992 59.6299 52.1665 61.7523 56.5697C62.3568 57.8242 63.9857 60.4337 64.1645 60.4346Z" fill="white"/>
</svg>
