<svg width="58" height="61" viewBox="0 0 58 61" fill="none" xmlns="http://www.w3.org/2000/svg">
<path d="M31.4831 19.7103L31.6845 20.7967L32.486 20.0361L44.2306 8.89226L37.2615 23.5057L36.7858 24.503L37.8813 24.3589L53.9331 22.2466L39.7054 29.9727L38.7344 30.5L39.7054 31.0273L53.9331 38.7534L37.8813 36.6412L36.7858 36.497L37.2615 37.4943L44.2306 52.1077L32.486 40.9639L31.6845 40.2033L31.4831 41.2897L28.5317 57.2086L25.5803 41.2897L25.3789 40.2033L24.5774 40.9639L12.8328 52.1077L19.8019 37.4943L20.2775 36.497L19.1821 36.6412L3.13027 38.7534L17.358 31.0273L18.329 30.5L17.358 29.9727L3.13028 22.2466L19.1821 24.3589L20.2775 24.503L19.8019 23.5057L12.8328 8.89227L24.5774 20.0361L25.3789 20.7967L25.5803 19.7103L28.5317 3.79137L31.4831 19.7103Z" stroke="white" stroke-opacity="0.25" stroke-width="1.2"/>
</svg>
