<svg width="54" height="54" viewBox="0 0 54 54" fill="none" xmlns="http://www.w3.org/2000/svg">
<g id="Group 20">
<path id="Vector" d="M0.75 19.7499C0.75 13.0994 0.75 9.77406 2.04429 7.23386C3.18279 4.99944 4.99944 3.18279 7.23386 2.04429C9.77406 0.75 13.0994 0.75 19.7499 0.75H34.2501C40.9007 0.75 44.226 0.75 46.7661 2.04429C49.0005 3.18279 50.8172 4.99944 51.9557 7.23386C53.25 9.77406 53.25 13.0994 53.25 19.7499V34.2501C53.25 40.9007 53.25 44.226 51.9557 46.7661C50.8172 49.0005 49.0005 50.8172 46.7661 51.9557C44.226 53.25 40.9007 53.25 34.2501 53.25H19.7499C13.0994 53.25 9.77406 53.25 7.23386 51.9557C4.99944 50.8172 3.18279 49.0005 2.04429 46.7661C0.75 44.226 0.75 40.9007 0.75 34.2501V19.7499Z" fill="#00005B"/>
<path id="Vector_2" d="M22.8549 33.6821H14.7195L13.0642 38.966C13.0183 39.162 12.8378 39.3007 12.6416 39.2911H8.52101C8.28603 39.2911 8.20385 39.1588 8.27449 38.8938L15.3182 18.1736C15.3887 17.957 15.4591 17.7451 15.5296 17.468C15.6217 16.986 15.6688 16.4962 15.6704 16.0051C15.6502 15.86 15.7755 15.7315 15.9169 15.7522H21.5167C21.6808 15.7522 21.7746 15.8124 21.7984 15.9328L29.7932 38.9298C29.8635 39.171 29.793 39.2913 29.5819 39.2911H25.0033C24.8428 39.3093 24.6894 39.1993 24.6512 39.0382L22.8549 33.6821ZM15.9874 29.2269H21.552C20.6377 26.1028 19.6059 23.0199 18.7697 19.8714C17.8221 23.1373 16.947 26.1661 15.9874 29.2269Z" fill="#9999FF"/>
<path id="Vector_3" d="M35.7391 31.6418C36.063 34.3248 38.3159 35.6039 40.8106 35.5493C42.2174 35.5218 43.7208 35.3033 45.0354 34.7714C45.1524 34.6756 45.2114 34.7354 45.2114 34.9521V38.3836C45.2225 38.5621 45.1479 38.7216 45.0001 38.8171C43.3663 39.5592 41.4909 39.7831 39.7188 39.7546C34.4354 39.7546 30.8071 36.0319 30.8086 30.6158C30.7948 25.4832 34.1246 21.1531 39.2962 21.1531C43.6801 21.0394 46.7152 24.5493 46.7274 28.9182C46.7274 29.7138 46.6829 30.5123 46.5866 31.3021C46.5678 31.4648 46.4293 31.5912 46.2695 31.5912C42.7683 31.5912 39.2501 31.6418 35.7391 31.6418ZM35.7391 28.3512C37.6905 28.3512 39.653 28.4202 41.603 28.3332C41.8961 28.3032 42.1138 28.2475 42.1138 27.9428C42.0731 26.3232 40.7062 24.991 39.1201 25.0531C37.2039 24.9342 35.9775 26.5519 35.7391 28.3512Z" fill="#9999FF"/>
</g>
</svg>
