<svg width="54" height="54" viewBox="0 0 54 54" fill="none" xmlns="http://www.w3.org/2000/svg">
<g id="Group 21">
<path id="Vector" d="M0.75 19.7499C0.75 13.0994 0.75 9.77406 2.04429 7.23386C3.18279 4.99944 4.99944 3.18279 7.23386 2.04429C9.77406 0.75 13.0994 0.75 19.7499 0.75H34.2501C40.9007 0.75 44.226 0.75 46.7661 2.04429C49.0005 3.18279 50.8172 4.99944 51.9557 7.23386C53.25 9.77406 53.25 13.0994 53.25 19.7499V34.2501C53.25 40.9007 53.25 44.226 51.9557 46.7661C50.8172 49.0005 49.0005 50.8172 46.7661 51.9557C44.226 53.25 40.9007 53.25 34.2501 53.25H19.7499C13.0994 53.25 9.77406 53.25 7.23386 51.9557C4.99944 50.8172 3.18279 49.0005 2.04429 46.7661C0.75 44.226 0.75 40.9007 0.75 34.2501V19.7499Z" fill="#330000"/>
<path id="Vector_2" d="M26.1914 33.7433H18.0559L16.4007 39.0171C16.3547 39.213 16.1744 39.3518 15.9781 39.342H11.8574C11.6224 39.342 11.5403 39.2097 11.6109 38.9447L18.6546 18.1386C18.7251 17.9218 18.7956 17.6751 18.8659 17.3982C18.9582 16.9161 19.0052 16.4263 19.0069 15.9353C18.9867 15.7902 19.1142 15.662 19.2533 15.6823H24.8532C25.0172 15.6823 25.111 15.7425 25.1348 15.8629L33.1296 38.9809C33.1999 39.2218 33.1296 39.3422 32.9183 39.342H28.3397C28.1792 39.3604 28.0259 39.2503 27.9876 39.0893L26.1914 33.7433ZM19.3238 29.1919H24.8884C23.9742 26.0678 22.9424 22.9847 22.1061 19.8364C21.2039 22.9902 20.2195 26.1312 19.3238 29.1919Z" fill="#FF9A00"/>
<path id="Vector_3" d="M37.8837 19.5109C37.5244 19.5257 37.1663 19.4625 36.8324 19.3256C36.4986 19.1888 36.1967 18.981 35.9466 18.7163C35.6972 18.4399 35.5034 18.1159 35.3764 17.7624C35.2495 17.4092 35.1919 17.0336 35.2069 16.6573C35.1942 16.2848 35.2581 15.9137 35.3946 15.5682C35.5313 15.2228 35.7374 14.9108 35.9995 14.6525C36.259 14.397 36.5654 14.1968 36.901 14.0635C37.2364 13.9302 37.5944 13.8664 37.954 13.8759C38.7994 13.8759 39.4626 14.1348 39.9439 14.6525C40.1869 14.9216 40.3757 15.2372 40.4997 15.5812C40.6234 15.9251 40.68 16.2909 40.6658 16.6573C40.6806 17.0349 40.6212 17.412 40.491 17.7656C40.3611 18.1193 40.1629 18.4425 39.9087 18.7163C39.643 18.9849 39.3257 19.1942 38.9774 19.3311C38.6288 19.4678 38.2564 19.5291 37.8837 19.5109ZM35.4535 38.9805V21.7144C35.4535 21.4976 35.547 21.3893 35.7353 21.3893H40.0673C40.2548 21.3893 40.3487 21.4976 40.3489 21.7144V38.9805C40.3489 39.2216 40.255 39.342 40.0673 39.3418H35.7705C35.5592 39.3418 35.4535 39.2214 35.4535 38.9805Z" fill="#FF9A00"/>
</g>
</svg>
