<svg width="20" height="20" viewBox="0 0 20 20" fill="none" xmlns="http://www.w3.org/2000/svg">
<path d="M10.0003 18.3334C14.6027 18.3334 18.3337 14.6025 18.3337 10.0001C18.3337 5.39771 14.6027 1.66675 10.0003 1.66675C5.39795 1.66675 1.66699 5.39771 1.66699 10.0001C1.66699 14.6025 5.39795 18.3334 10.0003 18.3334Z" fill="#33691E"/>
<path d="M8.74504 7.08325C8.73545 7.08325 8.72212 7.08825 8.70129 7.0995C8.65587 7.13034 8.56629 7.22325 8.56462 7.33075C8.56129 7.39117 8.55004 7.39117 8.5892 7.42992C8.61837 7.47075 8.64629 7.46742 8.70462 7.43659C8.73712 7.412 8.74837 7.39742 8.76004 7.357C8.77295 7.287 8.6867 7.3895 8.67712 7.31325C8.65754 7.24159 8.71295 7.21242 8.76504 7.14409C8.76629 7.11075 8.76629 7.08492 8.74504 7.08325Z" fill="white"/>
<path d="M9.58625 7.08831C9.57 7.08997 9.55042 7.11122 9.52292 7.15997C9.50334 7.21206 9.41875 7.29164 9.48042 7.45456C9.52917 7.55706 9.55042 7.72456 9.5275 7.91039C9.49334 7.96414 9.485 7.98206 9.43959 8.03414C9.37625 8.10414 9.30625 8.08622 9.25417 8.06039C9.20375 8.02789 9.16459 8.00997 9.14167 7.90414C9.14667 7.73497 9.15625 7.45831 9.12542 7.39956C9.08 7.30831 9.005 7.34081 8.9725 7.36872C8.81792 7.51039 8.74125 7.74789 8.69584 7.93664C8.65209 8.07497 8.60625 8.03581 8.57542 7.97914C8.49709 7.90747 8.4925 7.33622 8.39792 7.42914C8.24667 7.86039 8.48417 8.33247 8.64875 8.28706C8.7675 8.33581 8.8425 8.10956 8.89125 7.86206C8.92375 7.79372 8.95 7.78539 8.96625 7.82122C8.96292 8.14997 8.99084 8.22331 9.07542 8.32247C9.2625 8.46747 9.41875 8.34039 9.43167 8.32914C9.44292 8.31622 9.57834 8.18247 9.57834 8.18247C9.61084 8.14831 9.655 8.14497 9.70042 8.17581C9.74584 8.21664 9.73959 8.28664 9.83542 8.33539C9.91667 8.36789 10.0892 8.34372 10.1283 8.27372C10.1821 8.18081 10.195 8.14997 10.2196 8.11414C10.2588 8.06372 10.3238 8.08664 10.3238 8.10122C10.3188 8.13039 10.28 8.15831 10.3058 8.21039C10.3513 8.24456 10.3629 8.22164 10.3888 8.21539C10.4846 8.16831 10.5563 7.96164 10.5563 7.96164C10.5613 7.88497 10.5171 7.88997 10.4896 7.90622C10.4521 7.92914 10.4504 7.93706 10.4129 7.95831C10.3658 7.96664 10.2746 7.99747 10.2304 7.92747C10.185 7.84456 10.185 7.72747 10.1492 7.64247C10.1492 7.63581 10.0888 7.51081 10.1458 7.50247C10.1733 7.50747 10.2354 7.52372 10.245 7.47331C10.2742 7.42289 10.18 7.28122 10.1163 7.20956C10.0592 7.14789 9.98292 7.14122 9.90792 7.20289C9.85584 7.24997 9.86417 7.30372 9.8525 7.35581C9.83959 7.41456 9.84292 7.48622 9.90125 7.56414C9.95334 7.66664 10.0492 7.79872 10.0183 7.98581C10.0183 7.98581 9.96292 8.07372 9.86542 8.06247C9.82459 8.05414 9.75959 8.03622 9.72375 7.77747C9.6975 7.58206 9.73042 7.30872 9.64709 7.17997C9.62834 7.13039 9.61209 7.08497 9.58625 7.08831Z" fill="white"/>
<path d="M9.31931 7.10968C9.29472 7.11134 9.26722 7.14051 9.24431 7.19759C9.22472 7.24009 9.20056 7.46468 9.20514 7.46468C9.18889 7.53134 9.27514 7.56051 9.31431 7.47426C9.37139 7.31634 9.37306 7.24968 9.37597 7.18301C9.36639 7.13051 9.34556 7.10634 9.31931 7.10968Z" fill="white"/>
<path d="M10.3046 7.12715C10.2783 7.12881 10.2575 7.1434 10.2492 7.18256C10.2396 7.27215 10.2442 7.3209 10.2588 7.39423C10.2717 7.44465 10.3433 7.52756 10.3792 7.57673C10.55 7.80465 10.7129 8.0359 10.8725 8.2734C10.8971 8.44923 10.915 8.6234 10.9263 8.79423C10.9525 9.17173 10.9604 9.64215 10.9358 10.0392C11.0075 10.0426 11.1213 9.92548 11.1604 9.75423C11.1867 9.51673 11.1508 9.0334 11.1492 8.8934C11.1475 8.83465 11.1425 8.76631 11.1396 8.6934C11.3233 8.99465 11.5025 9.3134 11.6783 9.6634C11.7417 9.63256 11.7271 9.27256 11.6896 9.22215C11.5496 8.91923 11.3558 8.62173 11.2942 8.50756C11.2713 8.46506 11.1967 8.34965 11.1054 8.21798C11.0892 8.02756 11.0713 7.86631 11.06 7.81756C11.0308 7.61756 11.1429 7.84048 11.1267 7.72298C11.0908 7.52298 10.98 7.3859 10.8483 7.20215C10.8075 7.1434 10.8075 7.13048 10.7425 7.21673C10.7033 7.30465 10.7033 7.37965 10.715 7.44798C10.6988 7.4234 10.6775 7.39256 10.6467 7.35673C10.5342 7.25923 10.5263 7.25423 10.4333 7.1759C10.4042 7.15506 10.3471 7.12256 10.3046 7.12715Z" fill="white"/>
<path d="M13.2176 7.15674C13.2046 7.15507 13.1913 7.16174 13.1751 7.18424C13.1459 7.21049 13.1146 7.2559 13.1146 7.3159C13.123 7.42174 13.1409 7.5309 13.1488 7.63674C13.1505 7.65132 13.1538 7.6659 13.1571 7.67924C13.1459 7.66465 13.1359 7.65299 13.1296 7.6484C12.923 7.43174 13.2242 7.61257 13.0905 7.44507C12.9767 7.32132 12.9438 7.28049 12.8463 7.2059C12.7976 7.17507 12.768 7.11465 12.7517 7.21715C12.7467 7.30674 12.7388 7.4109 12.7451 7.48715C12.7451 7.52965 12.7888 7.60924 12.8263 7.65465C12.963 7.82382 13.1046 8.00465 13.2463 8.19174C13.2755 8.5759 13.2838 8.92757 13.313 9.31007C13.3096 9.47465 13.2592 9.69257 13.2121 9.71382C13.2121 9.71382 13.1388 9.75632 13.0884 9.70882C13.0542 9.69424 12.9109 9.47132 12.9109 9.47132C12.8392 9.40465 12.7905 9.42424 12.7384 9.47132C12.5967 9.60965 12.5317 9.8684 12.4342 10.0459C12.4096 10.0851 12.3396 10.1192 12.2617 10.0426C12.0617 9.7709 12.1788 9.38507 12.1542 9.48424C11.9767 9.68299 12.0551 10.0134 12.0955 10.0847C12.1542 10.2017 12.1996 10.2767 12.3134 10.3338C12.4176 10.4105 12.4971 10.363 12.543 10.3092C12.6471 10.2017 12.6471 9.92507 12.6959 9.87132C12.7301 9.77049 12.8163 9.7884 12.8588 9.83215C12.8996 9.8909 12.9467 9.92799 13.0067 9.95924C13.1042 10.0455 13.2201 10.0617 13.3338 9.98382C13.4121 9.94007 13.4626 9.88299 13.508 9.77049C13.5567 9.63882 13.5326 8.95174 13.5226 8.56924C13.5959 8.6734 13.6676 8.77757 13.7392 8.88507C13.7717 9.22049 13.7863 9.5509 13.7751 9.86799C13.7684 9.93132 13.9946 9.67924 13.993 9.56049C13.993 9.45632 13.993 9.3634 13.993 9.27549C14.1038 9.45132 14.2109 9.63049 14.3121 9.8109C14.3738 9.7784 14.353 9.4234 14.3138 9.37465C14.208 9.19715 14.073 9.00674 13.9671 8.85882C13.9459 8.67174 13.9184 8.45049 13.9055 8.38174C13.8859 8.27757 13.8663 8.11799 13.8355 7.99424C13.8271 7.94549 13.803 7.78924 13.8092 7.77299C13.8221 7.73882 13.868 7.77465 13.8921 7.73382C13.9263 7.69632 13.7717 7.29924 13.6951 7.18674C13.6676 7.13632 13.6155 7.15257 13.5534 7.23549C13.4946 7.28924 13.5159 7.41465 13.5388 7.53174C13.5959 7.83299 13.648 8.13882 13.6884 8.44465C13.6134 8.33215 13.5209 8.19715 13.4296 8.06549C13.428 8.05424 13.4184 8.00674 13.4184 8.00674C13.4184 8.00007 13.4071 7.7609 13.3955 7.70257C13.3938 7.67965 13.3871 7.6734 13.4117 7.67632C13.438 7.69757 13.4426 7.69924 13.4571 7.70549C13.4834 7.71049 13.5059 7.66632 13.4913 7.6259C13.4101 7.47632 13.3284 7.32632 13.2488 7.1784C13.2401 7.16799 13.2305 7.1584 13.2176 7.15674Z" fill="white"/>
<path d="M5.69651 7.16462C5.65276 7.16295 5.60193 7.19087 5.62151 7.2442C5.61026 7.27337 5.70943 7.37295 5.72734 7.4267C5.74193 7.46587 5.71109 7.59129 5.74359 7.60254C5.77443 7.61545 5.81526 7.51629 5.82984 7.42337C5.83943 7.37295 5.83151 7.20212 5.71609 7.16629C5.70943 7.16462 5.70276 7.16462 5.69651 7.16462Z" fill="white"/>
<path d="M14.2644 7.16455C14.2548 7.16622 14.2415 7.18247 14.2219 7.2233C14.1765 7.2983 14.1602 7.4333 14.1794 7.55038C14.2902 8.29747 14.3715 9.0183 14.3877 9.6808C14.3781 9.74247 14.3765 9.77663 14.3469 9.85497C14.2819 9.93788 14.2085 10.0437 14.1419 10.0941C14.0735 10.1446 13.9302 10.1916 13.8831 10.2291C13.7352 10.3154 13.7335 10.4146 13.854 10.4179C14.0623 10.3933 14.3081 10.3771 14.4773 10.1216C14.5227 10.05 14.5765 9.85455 14.5781 9.7358C14.5944 9.03913 14.5698 8.35705 14.4656 7.85247C14.459 7.80372 14.4365 7.68955 14.446 7.67497C14.459 7.6408 14.5273 7.6783 14.5519 7.63913C14.586 7.6033 14.376 7.33163 14.301 7.2158C14.2856 7.18747 14.2777 7.16455 14.2644 7.16455Z" fill="white"/>
<path d="M12.0833 7.17634C12.075 7.178 12.0621 7.19092 12.0396 7.22175C11.9808 7.41217 11.96 7.56675 11.9825 7.6855C12.1321 8.46342 12.2854 9.173 12.2608 9.9155C12.3308 9.9155 12.4121 9.75259 12.4479 9.59175C12.4675 9.3705 12.435 9.2355 12.43 9.10675C12.4233 8.97634 12.2821 7.92009 12.2542 7.82259C12.2183 7.6355 12.3908 7.798 12.3729 7.68925C12.3125 7.55259 12.1646 7.35384 12.1175 7.23509C12.0996 7.20384 12.0979 7.17467 12.0833 7.17634Z" fill="white"/>
<path d="M6.7737 7.19262C6.75412 7.19595 6.73787 7.21054 6.72995 7.23512C6.72662 7.25137 6.73829 7.27887 6.72329 7.2872C6.7137 7.29554 6.68079 7.29054 6.68245 7.2447C6.68245 7.23012 6.67287 7.21554 6.66621 7.20554C6.65954 7.20054 6.65495 7.20054 6.64329 7.20054C6.6287 7.20054 6.63037 7.20387 6.62204 7.21679C6.61871 7.22804 6.6137 7.2397 6.6137 7.25429C6.61204 7.27054 6.60537 7.27554 6.59412 7.27887C6.5812 7.27887 6.58454 7.27887 6.57287 7.2722C6.56621 7.26554 6.55829 7.26262 6.55829 7.25095C6.55829 7.23804 6.55496 7.21845 6.55162 7.21012C6.54662 7.20345 6.53704 7.19887 6.52704 7.1972C6.47162 7.1972 6.46662 7.26054 6.46996 7.28512C6.46662 7.29012 6.46495 7.4022 6.53995 7.43304C6.64245 7.48179 6.83287 7.46054 6.82496 7.29804C6.82496 7.28345 6.82162 7.2347 6.81995 7.22137C6.80954 7.1972 6.79162 7.18929 6.7737 7.19262Z" fill="white"/>
<path d="M8.13599 7.1924C8.10016 7.19406 8.06932 7.20365 8.04307 7.21865C7.97474 7.28365 7.96016 7.38615 8.01224 7.45156C8.06432 7.47448 8.11641 7.52656 8.08224 7.55573C7.93557 7.71198 7.55641 7.9724 7.53682 8.01948L7.53516 8.02115V8.02281V8.02448C7.53516 8.02448 7.53682 8.02448 7.53682 8.02615H7.53849V8.02781H7.54016C7.55974 8.04073 7.79724 8.04073 7.82349 8.02948L7.82516 8.02781C7.90807 7.99698 8.29557 7.55406 8.29557 7.55406C8.27432 7.53781 8.25641 7.5249 8.23682 7.50698C8.21391 7.48906 8.21724 7.46948 8.23682 7.45156C8.33141 7.39615 8.30182 7.2724 8.25141 7.21698C8.20932 7.19698 8.17016 7.19073 8.13599 7.1924Z" fill="white"/>
<path d="M11.6974 7.19409C11.6878 7.19576 11.6762 7.21201 11.6566 7.25117C11.6112 7.32784 11.5782 7.45784 11.5832 7.57992C11.6824 8.26659 11.712 8.86742 11.777 9.55409C11.7837 9.62076 11.7737 9.71701 11.7282 9.75576C11.5653 9.92659 11.3295 10.1366 11.0741 10.2328C11.0466 10.2637 11.1424 10.3958 11.2662 10.3958C11.4745 10.3728 11.6582 10.2558 11.8278 9.94826C11.8732 9.87659 11.9532 9.72367 11.9549 9.60492C11.9712 8.90659 11.9207 8.36451 11.8149 7.85992C11.8082 7.81117 11.8132 7.75242 11.8216 7.73784C11.8345 7.72159 11.882 7.73784 11.9045 7.69867C11.9403 7.66284 11.8099 7.36159 11.7353 7.24618C11.7203 7.21659 11.7103 7.19409 11.6974 7.19409Z" fill="white"/>
<path d="M6.18032 7.21497C6.15115 7.2183 6.12324 7.24247 6.11032 7.27372C6.10532 7.38289 6.10532 7.4933 6.11865 7.59455C6.16907 7.77372 6.18365 7.92997 6.20824 8.11205C6.2149 8.35622 6.06824 8.21789 6.0749 8.09747C6.10907 7.93955 6.09949 7.69205 6.0699 7.62872C6.04532 7.56705 6.01782 7.55039 5.95907 7.56205C5.91199 7.55872 5.79324 7.68913 5.75907 7.90538C5.75907 7.90538 5.73157 8.01622 5.71824 8.11538C5.70199 8.22788 5.62865 8.3058 5.57657 8.1008C5.53282 7.94955 5.5049 7.57997 5.4299 7.66788C5.40865 7.9558 5.38282 8.46372 5.62865 8.5158C5.9249 8.5433 5.76032 8.01455 5.86782 7.9183C5.88907 7.86955 5.92657 7.86955 5.92949 7.92955V8.37872C5.92615 8.52538 6.0224 8.56913 6.09699 8.5983C6.17532 8.5933 6.22574 8.59497 6.25657 8.66997C6.26949 8.93039 6.28115 9.18914 6.29407 9.44955C6.29407 9.44955 6.47324 9.50164 6.48282 9.01164C6.49115 8.72497 6.42574 8.48247 6.46324 8.42747C6.4649 8.37205 6.5349 8.37039 6.58365 8.39664C6.66199 8.45205 6.69615 8.51872 6.81657 8.49247C7.00032 8.44205 7.10949 8.35247 7.11282 8.21247C7.10157 8.07747 7.08657 7.94372 7.02824 7.81039C7.03657 7.7858 6.99407 7.72247 7.00199 7.69789C7.03449 7.74997 7.0849 7.74497 7.0949 7.69789C7.06407 7.59539 7.01657 7.49622 6.93699 7.45372C6.87199 7.39663 6.7774 7.40997 6.74324 7.52872C6.72699 7.66539 6.79199 7.8283 6.89115 7.96163C6.91407 8.01372 6.94324 8.09997 6.93032 8.1783C6.87657 8.20747 6.82449 8.19622 6.77907 8.14914C6.77907 8.14914 6.63407 8.03997 6.63407 8.0158C6.67324 7.7683 6.6424 7.73913 6.62115 7.6708C6.60657 7.57622 6.56074 7.54538 6.52365 7.48038C6.48782 7.44122 6.43907 7.44122 6.41449 7.48038C6.34949 7.59288 6.38032 7.83205 6.4274 7.93955C6.46157 8.03872 6.51199 8.1008 6.48782 8.1008C6.46824 8.15622 6.42615 8.1433 6.39657 8.07955C6.35282 7.94622 6.34449 7.74747 6.34449 7.65788C6.33157 7.54705 6.31699 7.30955 6.24365 7.24955C6.22574 7.22164 6.20324 7.21372 6.18032 7.21497Z" fill="white"/>
<path d="M7.22001 7.21665C7.20709 7.21832 7.19084 7.2279 7.17126 7.23124C7.10793 7.25082 7.04918 7.30624 7.06709 7.41207C7.14209 7.86457 7.19084 8.20957 7.26584 8.66207C7.27709 8.71582 7.23168 8.78582 7.17459 8.77915C7.07709 8.71249 7.05251 8.57915 6.88668 8.5854C6.76626 8.5854 6.62959 8.71707 6.61168 8.84249C6.59209 8.94332 6.58543 9.05249 6.61168 9.13874C6.69626 9.24124 6.79876 9.22999 6.88668 9.20707C6.96001 9.1779 7.02001 9.10457 7.04626 9.12249C7.06251 9.15165 7.04459 9.38624 6.70293 9.56832C6.49293 9.6629 6.32543 9.6854 6.23418 9.5129C6.17876 9.4054 6.23918 8.99707 6.10084 9.09124C5.69376 10.1396 7.05459 10.2858 7.20584 9.13499C7.21543 9.10249 7.24668 9.06999 7.26751 9.07624C7.27584 9.08124 7.28543 9.09415 7.28709 9.11707C7.25626 10.1604 6.23584 10.2321 6.06293 9.90332C6.01918 9.82665 6.00584 9.65415 6.00251 9.55165C5.99418 9.48832 5.97793 9.45249 5.96001 9.4379C5.91918 9.40707 5.86251 9.48832 5.85084 9.62832C5.83459 9.74207 5.83959 9.77332 5.83959 9.88207C5.89334 10.7058 7.20668 10.3525 7.42001 9.6704C7.52584 9.31874 7.41834 9.05374 7.45418 9.02082C7.45418 9.02082 7.45418 9.02082 7.45584 9.02082C7.45584 9.02082 7.45584 9.01915 7.45751 9.01915C7.45751 9.01915 7.45751 9.01915 7.45918 9.01915C7.45918 9.01749 7.46251 9.01749 7.46251 9.01749C7.59418 9.15749 7.77668 9.0354 7.81751 8.98665C7.83376 8.96207 7.87793 8.94749 7.90709 8.97832C8.00959 9.05165 8.18709 9.01749 8.22459 8.88874C8.24584 8.76165 8.26376 8.63165 8.26834 8.4979C8.20168 8.51749 8.14959 8.53374 8.12668 8.55665C8.12168 8.56165 8.11834 8.5679 8.11709 8.57457C8.11209 8.61207 8.10584 8.64957 8.10084 8.68707C8.09918 8.6904 8.09918 8.69207 8.09751 8.6954C8.09418 8.7004 8.08918 8.70374 8.08459 8.70665C8.06168 8.71957 8.02126 8.71165 8.01793 8.67749C7.98709 8.53415 7.85668 8.51624 7.77876 8.7379C7.72501 8.78165 7.62918 8.78999 7.61918 8.72499C7.63209 8.57707 7.57209 8.55582 7.45168 8.62749C7.41251 8.33124 7.37501 8.04957 7.33626 7.75499C7.38668 7.75332 7.43209 7.78915 7.47793 7.73207C7.42918 7.57749 7.32334 7.26332 7.26459 7.23415H7.26251C7.25918 7.23082 7.25584 7.22749 7.25418 7.22582C7.25251 7.22415 7.25084 7.22249 7.24918 7.22249C7.24918 7.22082 7.24751 7.22082 7.24584 7.21915C7.24418 7.21749 7.24084 7.21749 7.23751 7.21582C7.23126 7.21665 7.22668 7.21665 7.22001 7.21665Z" fill="white"/>
<path d="M11.279 7.22003C11.2269 7.21837 11.1698 7.25087 11.1911 7.31587C11.1782 7.3517 11.3036 7.47212 11.3244 7.53878C11.3602 7.63962 11.2969 7.73587 11.334 7.75045C11.3682 7.7667 11.4169 7.64628 11.4348 7.53378C11.4561 7.4442 11.3911 7.25878 11.2998 7.22128C11.2936 7.22003 11.2873 7.22003 11.279 7.22003Z" fill="white"/>
<path d="M8.11683 7.33089C8.14142 7.32756 8.17058 7.35047 8.1835 7.38131C8.19808 7.41381 8.19183 7.44464 8.16725 7.45131C8.141 7.45631 8.11017 7.43506 8.09558 7.40256C8.081 7.37006 8.08725 7.33756 8.1135 7.33089C8.1135 7.33089 8.11558 7.33089 8.11683 7.33089Z" fill="white"/>
<path d="M13.9832 7.48199C13.9361 7.48032 13.8841 7.51616 13.9036 7.58782C13.8924 7.62532 14.0061 7.75699 14.0241 7.82866C14.0403 7.87907 13.9995 8.04366 14.0336 8.05824C14.0645 8.07616 14.1086 7.94449 14.1249 7.82366C14.1345 7.75866 14.0857 7.52741 14.0028 7.48491C13.9961 7.48366 13.9895 7.48366 13.9832 7.48199Z" fill="white"/>
<path d="M10.7391 7.56323C10.7441 7.58115 10.7487 7.60073 10.752 7.62198C10.7603 7.66448 10.7699 7.70657 10.7783 7.74907C10.7408 7.69698 10.7099 7.65615 10.697 7.64157C10.6124 7.54073 10.6987 7.5749 10.7391 7.56323Z" fill="white"/>
<path d="M11.4857 7.92958C11.4678 7.93291 11.4499 7.94916 11.4432 7.97333C11.4399 7.98958 11.4515 8.01708 11.4365 8.02541C11.4282 8.03375 11.394 8.02875 11.3957 7.98291C11.3957 7.96833 11.3861 7.95208 11.3794 7.94375C11.3728 7.93875 11.3682 7.93875 11.3565 7.93875C11.3419 7.93875 11.3436 7.94208 11.3353 7.955C11.3319 7.96625 11.3269 7.97791 11.3269 7.9925C11.3253 8.00875 11.3186 8.01375 11.3074 8.01541C11.2944 8.01541 11.2961 8.01708 11.2861 8.01041C11.2794 8.00375 11.2715 8.00083 11.2715 7.98916C11.2715 7.97625 11.2682 7.95666 11.2648 7.94833C11.2582 7.94166 11.2503 7.93875 11.2403 7.93541C11.1848 7.93541 11.1815 7.99875 11.1848 8.02333C11.1798 8.02833 11.1765 8.14041 11.2532 8.17291C11.3557 8.22 11.5461 8.19916 11.5382 8.03625C11.5382 8.02166 11.5332 7.97291 11.5332 7.95958C11.5232 7.93625 11.5053 7.92625 11.4857 7.92958Z" fill="white"/>
<path d="M8.07652 7.96369C8.06361 7.96203 8.04736 7.96703 8.02777 7.97828C7.93819 8.02703 7.90402 8.17203 7.95944 8.25494C8.01152 8.32994 8.09444 8.30202 8.10611 8.30202C8.19402 8.31327 8.24611 8.13744 8.24611 8.13744C8.24611 8.13744 8.24944 8.08703 8.14527 8.18119C8.09986 8.18953 8.09486 8.17286 8.08361 8.14869C8.07527 8.10327 8.07694 8.05744 8.09819 8.01036C8.10736 7.98328 8.09777 7.96536 8.07652 7.96369Z" fill="white"/>
<path d="M12.897 7.98656C12.8483 7.98323 12.7945 8.01573 12.7816 8.08406C12.7816 8.12489 12.7995 8.14573 12.7962 8.18323C12.7895 8.20448 12.7687 8.21739 12.7178 8.19281C12.7245 8.18448 12.6837 8.12781 12.6837 8.12781C12.6445 8.10323 12.5908 8.12948 12.5566 8.15073C12.537 8.18656 12.5224 8.24531 12.5437 8.30698C12.6024 8.41281 12.7991 8.59364 12.892 8.59489C12.8937 8.49906 12.9033 8.37198 12.9083 8.29364C12.9099 8.26281 12.9178 8.23031 12.9458 8.22198C12.9749 8.21531 13.0253 8.25114 13.0253 8.22031C13.0203 8.15989 13.0074 8.06906 12.9733 8.02656C12.9558 8.00114 12.9278 7.98823 12.897 7.98656Z" fill="white"/>
<path d="M8.90606 8.3187C8.9044 8.32037 8.90273 8.32037 8.90273 8.32204C8.90106 8.32204 8.90106 8.3237 8.8994 8.3237C8.88981 8.33037 8.87815 8.34829 8.85231 8.3662C8.80856 8.41662 8.80023 8.45245 8.8019 8.55329C8.80523 8.56287 8.88648 8.78912 8.95482 8.9487C9.0019 9.11329 9.0444 9.3037 9.01356 9.48245C8.9044 9.71829 8.68648 9.92996 8.47481 10.0458C8.36731 10.08 8.27482 10.0687 8.24857 10.0441C8.1869 10.0016 8.18523 9.92871 8.18815 9.91537L8.18981 9.9137C8.36731 9.78995 8.57065 9.68912 8.73023 9.3537C8.77731 9.22662 8.7919 9.1487 8.74482 8.95162C8.7269 8.87662 8.70398 8.81662 8.65356 8.76454V8.76287C8.6844 8.74829 8.76273 8.80662 8.77565 8.7712C8.75607 8.67662 8.69273 8.54996 8.62106 8.48454C8.55773 8.42746 8.48773 8.4212 8.43065 8.47329C8.36398 8.50912 8.35107 8.63912 8.3819 8.75495C8.41773 8.8412 8.51231 8.85579 8.57898 9.02996C8.58065 9.04121 8.6019 9.16037 8.56773 9.20745C8.54023 9.2937 8.1869 9.57204 8.16231 9.58829C8.16231 9.58995 8.16065 9.58996 8.16065 9.58996L8.15898 9.59162C8.15898 9.59162 8.15898 9.59162 8.15731 9.59162V9.59329H8.15565L8.15398 9.59162V9.58996C8.15231 9.58162 8.15398 9.56537 8.15398 9.5362C8.15065 9.48412 8.17357 9.36537 8.1719 9.34579L8.17023 9.34412C8.05315 9.41912 8.01398 9.64995 7.99273 9.71829C7.69815 9.92162 7.36106 10.0745 7.16773 10.2816C7.06856 10.4395 7.86273 10.1008 7.95565 10.0604L7.95731 10.062C7.97523 10.0816 7.9769 10.15 8.02898 10.21C8.1119 10.3225 8.28773 10.3908 8.45857 10.3483C8.74523 10.2441 8.9094 10.0487 9.0769 9.83245C9.10148 9.79829 9.13856 9.77079 9.1744 9.79829C9.28981 10.057 9.6219 10.2395 10.0531 10.2587C10.1523 10.1383 10.1052 10.0779 10.0644 10.0537C10.0531 10.0441 9.85106 9.96579 9.81857 9.88787C9.79898 9.81454 9.84773 9.7512 9.94398 9.70245C10.219 9.66829 10.4911 9.63246 10.7544 9.54787C10.7577 9.45829 10.8098 9.32662 10.844 9.26954C10.8686 9.2287 10.8831 9.22579 10.8894 9.22079C10.8894 9.22079 10.8894 9.21912 10.8911 9.21912V9.21745H10.8927V9.21579C10.8927 9.21412 10.8927 9.21079 10.8911 9.20745L10.8473 9.1812L9.96523 9.17787C9.95398 9.17287 9.94565 9.16954 9.94065 9.16495L9.93898 9.16329C9.93898 9.16329 9.93898 9.16329 9.93898 9.16162H9.93731V9.15995L9.93565 9.15829V9.15662V9.15495V9.15329V9.15162V9.14995C9.93565 9.14995 9.93565 9.14829 9.93731 9.14829C9.94065 9.14162 9.9519 9.13704 9.96481 9.13204C10.1748 9.10287 10.549 9.04079 10.5736 8.6812C10.5702 8.49412 10.494 8.37204 10.2644 8.33787C10.0952 8.35079 9.97481 8.5137 9.9944 8.69412C9.98606 8.74287 10.0106 8.83745 9.96023 8.8487C9.63648 8.87787 9.28315 9.08162 9.27023 9.2262L9.26857 9.22787H9.2669H9.26523L9.26356 9.22954H9.26231H9.26065C9.25898 9.22954 9.25898 9.22954 9.25898 9.22954C9.25731 9.22954 9.25565 9.22787 9.25565 9.22787C9.2344 9.22287 9.2069 9.18704 9.2119 9.13829C9.19898 8.88745 9.11731 8.60287 8.98898 8.38287C8.94356 8.33745 8.92398 8.31954 8.91065 8.31787H8.90898C8.9094 8.3187 8.90773 8.3187 8.90606 8.3187H8.9044C8.90773 8.3187 8.90606 8.3187 8.90606 8.3187Z" fill="white"/>
<path d="M9.75113 8.45204C9.73321 8.45538 9.71529 8.46996 9.70863 8.49454C9.70363 8.51079 9.71696 8.53829 9.70029 8.54663C9.69196 8.55496 9.65946 8.54996 9.66113 8.50413C9.66113 8.49121 9.64988 8.47496 9.64321 8.46496C9.63821 8.46163 9.63363 8.45996 9.62196 8.45996C9.60738 8.45996 9.60738 8.46496 9.59904 8.47621C9.59571 8.48746 9.59071 8.50079 9.59071 8.51371C9.58904 8.52996 9.58404 8.53663 9.57279 8.53829C9.55821 8.53829 9.56154 8.53996 9.55154 8.53329C9.54488 8.52496 9.53696 8.52371 9.53696 8.51038C9.53696 8.49913 9.53363 8.47954 9.53029 8.47121C9.52529 8.46288 9.51571 8.45996 9.50404 8.45829C9.44863 8.45829 9.44529 8.52163 9.44863 8.54454C9.44529 8.54954 9.44196 8.66329 9.51863 8.69413C9.61946 8.74288 9.86196 8.71371 9.80196 8.55746C9.80196 8.54288 9.79863 8.49413 9.79696 8.48079C9.78863 8.45871 9.76904 8.44871 9.75113 8.45204Z" fill="white"/>
<path d="M13.1572 8.59207C13.1555 8.5904 13.1522 8.5904 13.1488 8.59207C13.1488 8.59207 12.6784 8.92749 12.6672 8.93874C12.6201 8.98124 12.6426 9.12582 12.6672 9.10957C12.6997 9.12249 13.1734 8.8004 13.1651 8.7629C13.1863 8.76457 13.1963 8.59874 13.1572 8.59207Z" fill="white"/>
<path d="M10.1951 8.64088C10.2147 8.63921 10.2389 8.64588 10.2635 8.65879C10.2993 8.68004 10.3205 8.71088 10.3189 8.73379V8.73546C10.3189 8.73546 10.3172 8.73713 10.3172 8.73879L10.3155 8.74046V8.74213L10.3139 8.74379C10.3122 8.74546 10.3105 8.74713 10.3089 8.74879C10.2926 8.76504 10.2535 8.76338 10.216 8.74213C10.1818 8.72088 10.1605 8.69004 10.1622 8.66879C10.1622 8.66713 10.1639 8.66713 10.1639 8.66546C10.1639 8.66213 10.1655 8.66046 10.1655 8.65713C10.1672 8.65713 10.1672 8.65546 10.1672 8.65379H10.1689C10.1689 8.65213 10.1705 8.65046 10.1722 8.65046C10.1789 8.64588 10.1868 8.64254 10.1951 8.64088Z" fill="white"/>
<path d="M6.07428 8.72534C5.83012 8.73034 5.47387 9.04618 5.46387 9.22034C5.72095 9.09659 5.97345 8.97784 6.23553 8.85076C6.19303 8.78743 6.2322 8.73034 6.07428 8.72534Z" fill="white"/>
<path d="M6.86335 8.83614C6.88793 8.83614 6.9121 8.84739 6.92501 8.88156C6.93793 8.91239 6.92668 8.94322 6.9121 8.95989V8.96156C6.9121 8.96156 6.9121 8.96156 6.9121 8.96322C6.90085 8.97614 6.86501 8.96989 6.83876 8.96989C6.8096 8.96989 6.79335 8.96489 6.77543 8.93906C6.76585 8.91156 6.79335 8.88364 6.8046 8.86239H6.80626C6.80626 8.85906 6.8096 8.85739 6.81126 8.85572C6.8196 8.84739 6.83585 8.83947 6.85376 8.83781C6.85668 8.83614 6.86001 8.83447 6.86335 8.83614Z" fill="white"/>
<path d="M13.0661 8.93254C13.0224 8.93754 12.9815 8.97962 13.0011 9.04504C12.9882 9.08421 13.0599 9.21754 13.0778 9.28921C13.094 9.33962 13.0565 9.48462 13.0907 9.49921C13.1215 9.51712 13.2061 9.41462 13.2032 9.28587C13.2128 9.22087 13.1803 8.97671 13.0957 8.93587C13.0857 8.93254 13.0761 8.93087 13.0661 8.93254Z" fill="white"/>
<path d="M7.86826 8.99919C7.82909 9.00086 7.79659 9.02211 7.81117 9.07586C7.80784 9.11336 7.91867 9.16044 7.92492 9.25169C7.93951 9.28752 7.90034 9.40627 7.93326 9.41752C7.96409 9.43044 8.00492 9.33627 8.02117 9.24836C8.02951 9.19961 7.98367 9.03169 7.90409 9.00252C7.89242 8.99919 7.87951 8.99752 7.86826 8.99919Z" fill="white"/>
<path d="M9.4287 9.21216C9.43036 9.21216 9.4337 9.21216 9.43703 9.21216C9.43703 9.21216 9.43703 9.21216 9.4387 9.21216C9.53453 9.23841 9.67953 9.24133 9.80328 9.25466C9.90411 9.26133 9.95453 9.33924 9.86036 9.37341C9.76578 9.40591 9.67661 9.43049 9.67661 9.56549C9.68786 9.63216 9.68494 9.66799 9.67494 9.68424C9.67494 9.68591 9.67328 9.68758 9.67161 9.68758V9.68924H9.66995V9.69091H9.66828L9.66661 9.69257C9.66495 9.69257 9.66328 9.69424 9.66161 9.69424C9.66161 9.69424 9.65828 9.69424 9.65828 9.69591C9.63536 9.69924 9.60286 9.67799 9.5787 9.66507C9.52161 9.62257 9.35911 9.52341 9.3362 9.30716C9.33245 9.25799 9.36995 9.21549 9.4287 9.21216Z" fill="white"/>
<path d="M5.6164 9.37842C5.60974 9.37842 5.59682 9.39633 5.58224 9.41758C5.43724 9.6455 5.42599 9.98717 5.5039 10.0897C5.5464 10.1368 5.6164 10.158 5.66682 10.1434C5.75807 10.1043 5.79724 9.9205 5.77599 9.85383C5.74515 9.80675 5.72057 9.80009 5.6914 9.83925C5.62807 9.96967 5.60182 9.88175 5.59557 9.80842C5.58599 9.67175 5.5989 9.54634 5.61515 9.44717C5.6214 9.39634 5.6214 9.37842 5.6164 9.37842Z" fill="white"/>
<path d="M10.5092 9.67798C10.4979 9.67798 10.4863 9.67965 10.475 9.68465C10.4734 9.68465 10.3725 9.75298 10.34 9.80006C10.3204 9.81631 10.3221 9.82923 10.3288 9.85548C10.3434 9.88965 10.3713 9.88006 10.4021 9.86215C10.4429 9.85715 10.4625 9.8834 10.4592 9.93381C10.4413 9.99423 10.4675 10.0167 10.4675 10.0217C10.4675 10.0251 10.5084 10.0592 10.5538 10.0313C10.6513 9.99381 10.7117 9.95798 10.8484 9.92881C10.8842 9.92715 10.8825 9.83131 10.8254 9.82798C10.7521 9.83298 10.6838 9.83631 10.6088 9.89465C10.5634 9.90423 10.5567 9.87673 10.5454 9.85215C10.5342 9.79048 10.5717 9.74631 10.565 9.7009C10.5659 9.70215 10.54 9.67923 10.5092 9.67798Z" fill="white"/>
<path d="M13.6411 9.79492C13.6232 9.79492 13.6053 9.79826 13.5778 9.79992C13.5469 9.80659 13.5369 9.81951 13.5307 9.85701C13.534 9.91076 13.5665 9.90909 13.6024 9.93034C13.6219 9.95659 13.6349 9.97909 13.6007 10.0216C13.5682 10.0508 13.5436 10.067 13.5111 10.0966C13.4965 10.1241 13.4865 10.1633 13.534 10.1762C13.6203 10.2008 13.8219 10.0703 13.8219 10.067C13.8544 10.0424 13.8432 9.99701 13.8415 9.99701C13.8219 9.97409 13.7799 9.98742 13.7503 9.98409C13.7374 9.98409 13.6915 9.97742 13.7128 9.93867C13.7307 9.91242 13.7374 9.89784 13.7486 9.86701C13.7632 9.83784 13.7519 9.81826 13.7015 9.80034C13.6769 9.79659 13.659 9.79492 13.6411 9.79492Z" fill="white"/>
<path d="M12.62 12.3146C12.62 12.3146 12.62 12.3163 12.6183 12.3163C12.4733 12.3521 12.4783 12.5033 12.5712 12.5683C11.0413 12.5683 8.69417 12.5438 8.18958 12.5438C7.90792 12.5438 7.0175 12.5096 7 12.5096C7.19208 12.7896 7.46875 12.8467 7.83 12.8513C8.51042 12.8513 11.6583 12.8429 12.555 12.8429C12.4917 12.9554 12.5617 13.1375 12.6104 13.1717C12.6121 13.1717 12.6137 13.1733 12.6154 13.1733C12.6171 13.1733 12.6188 13.175 12.6204 13.175C12.6221 13.175 12.6237 13.175 12.6237 13.175C12.6825 13.1896 12.7083 13.1475 12.7296 13.1146C12.8254 13.1229 13.3658 13.1308 13.4162 13.1146V13.1129C13.4504 13.1617 13.4829 13.2088 13.5479 13.2008C13.6587 13.1779 13.7467 13.165 13.7496 12.9388C13.7496 12.9388 13.7383 12.5512 13.4842 12.5758C13.4254 12.5854 13.2562 12.6021 13.2562 12.6021C13.0608 12.5792 12.9192 12.5758 12.6996 12.5679C12.7208 12.5417 12.755 12.4392 12.7125 12.4004C12.7012 12.3908 12.6833 12.3858 12.6604 12.3875H12.6587H12.6571C12.6554 12.3875 12.6537 12.3875 12.6537 12.3858C12.6521 12.3858 12.6504 12.3842 12.6504 12.3825L12.6487 12.3808C12.6375 12.3646 12.6308 12.3254 12.6242 12.3158L12.6225 12.3142L12.6208 12.3125H12.6192C12.62 12.3146 12.62 12.3146 12.62 12.3146Z" fill="white"/>
<path d="M12.4364 12.9963C12.4364 12.9963 12.4364 12.9963 12.4381 12.9963C12.661 13.0076 12.871 12.9997 13.0939 13.0093C13.1297 13.0401 13.1118 13.1084 13.0872 13.1218C13.0872 13.1218 13.0856 13.1234 13.0839 13.1234C13.0839 13.1234 13.0822 13.1234 13.0806 13.1234H13.0789C13.0056 13.1218 12.9635 13.1201 12.8918 13.1184C12.8918 13.1134 12.8901 13.1101 12.8901 13.1072C12.8722 13.0568 12.7485 13.0601 12.7176 13.0988C12.7176 13.1005 12.7176 13.1005 12.716 13.1022C12.716 13.1022 12.716 13.1038 12.7143 13.1038C12.7143 13.1055 12.7143 13.1072 12.7126 13.1088C12.7126 13.1105 12.7126 13.1122 12.7126 13.1138C12.7126 13.1155 12.711 13.1188 12.711 13.1205C12.6135 13.1318 12.5256 13.1172 12.4276 13.1138C12.3989 13.078 12.4022 13.0126 12.4364 12.9963Z" fill="white"/>
</svg>
