<svg width="60" height="50" viewBox="0 0 60 50" fill="none" xmlns="http://www.w3.org/2000/svg">
<g id="Group">
<path id="Vector" d="M23.5381 27.629C23.7563 23.7372 25.6621 20.3084 28.5372 17.8778C31.3568 15.4904 35.1519 14.0312 39.2928 14.0312C43.4296 14.0312 47.2247 15.4904 50.0463 17.8778C52.9194 20.3084 54.8252 23.7372 55.0454 27.6249C55.2636 31.6238 53.6562 35.3386 50.8366 38.0924C47.9615 40.8934 43.8721 42.651 39.2928 42.651C34.7136 42.651 30.6159 40.8934 27.7428 38.0924C24.9212 35.3386 23.3179 31.6238 23.5381 27.629Z" fill="white"/>
<path id="Vector_2" d="M31.211 27.9762C31.3229 25.9792 32.3008 24.2199 33.7761 22.9727C35.2228 21.7477 37.1701 20.999 39.2948 20.999C41.4174 20.999 43.3648 21.7477 44.8126 22.9727C46.2868 24.2199 47.2646 25.9792 47.3776 27.9741C47.4896 30.0259 46.6648 31.932 45.2181 33.345C43.7428 34.7822 41.6445 35.6841 39.2948 35.6841C36.9452 35.6841 34.8426 34.7822 33.3684 33.345C31.9206 31.932 31.098 30.0259 31.211 27.9762Z" fill="#265787"/>
<path id="Vector_3" d="M18.3775 32.0786C18.3913 32.8617 18.641 34.3836 19.0157 35.572C19.803 38.0876 21.1386 40.4147 22.9969 42.4657C24.904 44.5738 27.2523 46.267 29.9647 47.4692C32.8157 48.7318 35.9048 49.3752 39.1135 49.37C42.317 49.3657 45.4061 48.7096 48.2571 47.4375C50.9695 46.2236 53.3157 44.523 55.2196 42.4138C57.0769 40.3544 58.4103 38.023 59.1998 35.5075C59.5966 34.2365 59.8475 32.9464 59.948 31.6521C60.0464 30.3769 60.0051 29.0995 59.8242 27.8233C59.4707 25.3363 58.6103 23.0028 57.2854 20.8756C56.0736 18.921 54.5116 17.2097 52.6543 15.7694L52.6585 15.7662L33.9153 1.37461C33.8983 1.36191 33.8846 1.34816 33.8666 1.33651C32.6368 0.392525 30.569 0.3957 29.2165 1.34181C27.8492 2.2985 27.6925 3.88063 28.9096 4.87859L28.9043 4.88388L36.7218 11.241L12.8946 11.2664H12.8628C10.8933 11.2685 9.00007 12.5607 8.62543 14.1936C8.24022 15.8572 9.57789 17.2372 11.6257 17.2446L11.6225 17.2521L23.6996 17.2288L2.14873 33.7708C2.12122 33.7909 2.09159 33.8121 2.06619 33.8322C0.0332241 35.3889 -0.623971 37.9775 0.656554 39.6157C1.95613 41.2815 4.71931 41.2846 6.77344 39.6252L18.5352 29.9991C18.5352 29.9991 18.3638 31.2987 18.3775 32.0786ZM48.6011 36.4303C46.1776 38.8993 42.7847 40.2994 39.1135 40.3068C35.4371 40.3131 32.0442 38.9257 29.6207 36.461C28.4365 35.2598 27.5666 33.8777 27.0301 32.4056C26.5041 30.959 26.2998 29.4234 26.4353 27.8741C26.5634 26.3596 27.0142 24.9151 27.7338 23.6081C28.4408 22.3234 29.4144 21.1624 30.6166 20.1803C32.9723 18.2606 35.9715 17.2214 39.1083 17.2171C42.2482 17.2129 45.2452 18.2426 47.6031 20.156C48.8032 21.1338 49.7758 22.2905 50.4827 23.5732C51.2055 24.8791 51.6532 26.3184 51.7865 27.837C51.9198 29.3842 51.7156 30.9177 51.1896 32.3654C50.652 33.8417 49.7853 35.2238 48.6011 36.4303Z" fill="#EA7600"/>
</g>
</svg>
