<svg width="80" height="80" viewBox="0 0 80 80" fill="none" xmlns="http://www.w3.org/2000/svg">
<g id="icons8_branding 1">
<path id="Vector" opacity="0.35" d="M63.333 33.3333H59.9997V26.6666C59.9997 24.8266 58.5063 23.3333 56.6663 23.3333H16.6663C14.8263 23.3333 13.333 24.8266 13.333 26.6666V63.3333C13.333 68.8566 17.8097 73.3333 23.333 73.3333H49.9997C55.523 73.3333 59.9997 68.8566 59.9997 63.3333H63.333C68.8563 63.3333 73.333 58.8566 73.333 53.3333V43.3333C73.333 37.8099 68.8563 33.3333 63.333 33.3333ZM66.6663 53.3333C66.6663 55.1733 65.173 56.6666 63.333 56.6666H59.9997V39.9999H63.333C65.173 39.9999 66.6663 41.4933 66.6663 43.3333V53.3333Z" fill="#1DE2CF"/>
<path id="Vector_2" d="M30.0003 3.33325C31.8403 3.33325 33.3337 4.82659 33.3337 6.66659V13.3333C33.3337 15.1733 31.8403 16.6666 30.0003 16.6666C28.1603 16.6666 26.667 15.1733 26.667 13.3333V6.66659C26.667 4.82659 28.1603 3.33325 30.0003 3.33325Z" fill="#1DE2CF"/>
<path id="Vector_3" d="M43.3333 6.66675C45.1733 6.66675 46.6667 8.16008 46.6667 10.0001V13.3334C46.6667 15.1734 45.1733 16.6667 43.3333 16.6667C41.4933 16.6667 40 15.1734 40 13.3334V10.0001C40 8.16008 41.4933 6.66675 43.3333 6.66675Z" fill="#1DE2CF"/>
<path id="Vector_4" d="M48.3463 49.4367C47.3497 47.8667 46.5763 46.1934 46.0363 44.4134C44.9263 40.7567 42.2997 37.9734 39.0397 37.0367C37.8663 33.3167 35.9897 31.2767 35.6897 30.9767C34.3997 29.6867 32.343 29.7001 31.0363 30.9567C29.7297 32.2234 29.6997 34.3234 30.9397 35.6501C30.9897 35.7034 31.653 36.4534 32.2697 37.8734C29.9663 39.2067 28.1697 41.5501 27.2963 44.4134C26.7563 46.1934 25.983 47.8667 24.9863 49.4367C23.9397 51.0867 23.333 52.9767 23.333 55.0001C23.333 61.4434 29.303 66.6667 36.6663 66.6667C44.0297 66.6667 49.9997 61.4434 49.9997 55.0001C49.9997 52.9767 49.393 51.0867 48.3463 49.4367Z" fill="#1DE2CF"/>
</g>
</svg>
