<svg width="80" height="80" viewBox="0 0 80 80" fill="none" xmlns="http://www.w3.org/2000/svg">
<g id="icons8_cinema_film_play 1">
<path id="Vector" opacity="0.35" d="M16.6504 13.3633H63.3171C68.8404 13.3633 73.3171 17.8399 73.3171 23.3633V56.6966C73.3171 62.2199 68.8404 66.6966 63.3171 66.6966H16.6504C11.1271 66.6966 6.65039 62.2199 6.65039 56.6966V23.3633C6.65039 17.8399 11.1271 13.3633 16.6504 13.3633Z" fill="#5458B1"/>
<path id="Vector_2" d="M16.6497 43.3634C18.4907 43.3634 19.9831 41.8711 19.9831 40.0301C19.9831 38.1892 18.4907 36.6968 16.6497 36.6968C14.8088 36.6968 13.3164 38.1892 13.3164 40.0301C13.3164 41.8711 14.8088 43.3634 16.6497 43.3634Z" fill="#5458B1"/>
<path id="Vector_3" d="M16.6497 30.0299C18.4907 30.0299 19.9831 28.5376 19.9831 26.6966C19.9831 24.8557 18.4907 23.3633 16.6497 23.3633C14.8088 23.3633 13.3164 24.8557 13.3164 26.6966C13.3164 28.5376 14.8088 30.0299 16.6497 30.0299Z" fill="#5458B1"/>
<path id="Vector_4" d="M16.6497 56.6965C18.4907 56.6965 19.9831 55.2041 19.9831 53.3631C19.9831 51.5222 18.4907 50.0298 16.6497 50.0298C14.8088 50.0298 13.3164 51.5222 13.3164 53.3631C13.3164 55.2041 14.8088 56.6965 16.6497 56.6965Z" fill="#5458B1"/>
<path id="Vector_5" d="M63.3333 43.3634C65.1743 43.3634 66.6667 41.8711 66.6667 40.0301C66.6667 38.1892 65.1743 36.6968 63.3333 36.6968C61.4924 36.6968 60 38.1892 60 40.0301C60 41.8711 61.4924 43.3634 63.3333 43.3634Z" fill="#5458B1"/>
<path id="Vector_6" d="M63.3333 30.0299C65.1743 30.0299 66.6667 28.5376 66.6667 26.6966C66.6667 24.8557 65.1743 23.3633 63.3333 23.3633C61.4924 23.3633 60 24.8557 60 26.6966C60 28.5376 61.4924 30.0299 63.3333 30.0299Z" fill="#5458B1"/>
<path id="Vector_7" d="M63.3333 56.6965C65.1743 56.6965 66.6667 55.2041 66.6667 53.3631C66.6667 51.5222 65.1743 50.0298 63.3333 50.0298C61.4924 50.0298 60 51.5222 60 53.3631C60 55.2041 61.4924 56.6965 63.3333 56.6965Z" fill="#5458B1"/>
<path id="Vector_8" d="M78.0367 62.9798L54.8233 74.5865C52.6067 75.6965 50 74.0831 50 71.6065V48.3931C50 45.9165 52.6067 44.3031 54.8233 45.4131L78.0367 57.0198C80.4933 58.2465 80.4933 61.7531 78.0367 62.9798Z" fill="#5458B1"/>
</g>
</svg>
