<svg width="134" height="134" viewBox="0 0 134 134" fill="none" xmlns="http://www.w3.org/2000/svg">
<g id="Group 11">
<path id="Ellipse 3" d="M96.815 15.3589C98.8502 11.8339 97.6547 7.28512 93.9275 5.64922C82.9825 0.845238 70.9058 -0.961457 58.9508 0.485259C44.5471 2.22831 31.0983 8.59987 20.6264 18.6421C10.1545 28.6843 3.22535 41.8544 0.880665 56.1726C-1.46402 70.4907 0.902472 85.1831 7.62437 98.0408C14.3463 110.899 25.0603 121.227 38.1558 127.473C51.2512 133.719 66.0205 135.546 80.2431 132.678C94.4657 129.81 107.373 122.403 117.025 111.57C125.036 102.579 130.444 91.6314 132.746 79.9022C133.53 75.908 130.477 72.3303 126.421 71.9897C122.365 71.6491 118.852 74.6816 117.945 78.6496C115.99 87.1981 111.905 95.1586 106.019 101.765C98.491 110.215 88.4232 115.992 77.3296 118.229C66.236 120.466 54.716 119.041 44.5015 114.169C34.287 109.297 25.9301 101.241 20.687 91.2119C15.4439 81.1828 13.5981 69.7227 15.4269 58.5546C17.2558 47.3864 22.6605 37.1137 30.8286 29.2808C38.9967 21.4479 49.4867 16.4781 60.7216 15.1185C69.5056 14.0555 78.3738 15.2443 86.509 18.5179C90.2851 20.0374 94.7798 18.8839 96.815 15.3589Z" fill="#1DE2CF"/>
<circle id="Ellipse 4" cx="67" cy="67" r="35" fill="white" fill-opacity="0.25"/>
</g>
</svg>
