<svg width="80" height="80" viewBox="0 0 80 80" fill="none" xmlns="http://www.w3.org/2000/svg">
<g id="icons8_create_icon 1">
<path id="Vector" d="M50 56.8999V69.9999C50 73.6666 47 76.6666 43.3333 76.6666H36.6667C33 76.6666 30 73.6666 30 69.9999V56.8999C33.0333 58.9666 36.5 59.9999 40 59.9999C43.5 59.9999 46.9667 58.9666 50 56.8999Z" fill="#FD346E"/>
<path id="Vector_2" opacity="0.35" d="M69.9998 34.8367C68.5764 34.8367 67.2631 33.92 66.8164 32.49C66.5698 31.7 60.5031 13.1667 39.9998 13.1667C19.4964 13.1667 13.4298 31.7 13.1831 32.49C12.6298 34.2433 10.7531 35.21 9.00977 34.68C7.25644 34.1333 6.2731 32.2767 6.8131 30.52C6.88644 30.28 14.4998 6.5 39.9998 6.5C65.4998 6.5 73.1131 30.28 73.1864 30.52C73.7264 32.28 72.7398 34.1433 70.9798 34.6867C70.6531 34.7867 70.3231 34.8367 69.9998 34.8367Z" fill="#FD346E"/>
<path id="Vector_3" d="M43.333 16.6666H36.6663C34.8263 16.6666 33.333 15.1733 33.333 13.3333V6.66658C33.333 4.82659 34.8263 3.33325 36.6663 3.33325H43.333C45.173 3.33325 46.6663 4.82659 46.6663 6.66658V13.3333C46.6663 15.1733 45.173 16.6666 43.333 16.6666Z" fill="#FD346E"/>
<path id="Vector_4" d="M13.333 43.3333H6.66634C4.82634 43.3333 3.33301 41.84 3.33301 40V33.3333C3.33301 31.4933 4.82634 30 6.66634 30H13.333C15.173 30 16.6663 31.4933 16.6663 33.3333V40C16.6663 41.84 15.173 43.3333 13.333 43.3333Z" fill="#FD346E"/>
<path id="Vector_5" d="M73.333 43.3333H66.6663C64.8263 43.3333 63.333 41.84 63.333 40V33.3333C63.333 31.4933 64.8263 30 66.6663 30H73.333C75.173 30 76.6663 31.4933 76.6663 33.3333V40C76.6663 41.84 75.173 43.3333 73.333 43.3333Z" fill="#FD346E"/>
<path id="Vector_6" opacity="0.35" d="M26.7595 36.3534L36.6895 25.6934C38.5195 23.7301 41.4795 23.7301 43.3095 25.6934L53.2395 36.3534C57.8095 41.2601 57.8095 49.2134 53.2395 54.1201C45.9295 61.9701 34.0729 61.9701 26.7595 54.1201C22.1895 49.2134 22.1895 41.2601 26.7595 36.3534Z" fill="#FD346E"/>
<path id="Vector_7" d="M40 50C42.7614 50 45 47.7614 45 45C45 42.2386 42.7614 40 40 40C37.2386 40 35 42.2386 35 45C35 47.7614 37.2386 50 40 50Z" fill="#FD346E"/>
<path id="Vector_8" d="M43.3337 25.7334V43.3334H36.667V25.7334L36.7003 25.7001C38.5337 23.7334 41.467 23.7334 43.3003 25.7001L43.3337 25.7334Z" fill="#FD346E"/>
</g>
</svg>
