<svg width="20" height="20" viewBox="0 0 20 20" fill="none" xmlns="http://www.w3.org/2000/svg">
<g id="icons8_done 1">
<path id="Vector" d="M17.9007 3.74182C17.6842 3.74827 17.4788 3.83875 17.3278 3.9941L7.08369 14.2382L2.67288 9.82743C2.59609 9.74745 2.50412 9.6836 2.40234 9.63961C2.30057 9.59562 2.19104 9.57239 2.08018 9.57126C1.96931 9.57013 1.85933 9.59114 1.75668 9.63304C1.65404 9.67495 1.56078 9.73692 1.48238 9.81532C1.40398 9.89372 1.34202 9.98697 1.30011 10.0896C1.2582 10.1923 1.2372 10.3022 1.23832 10.4131C1.23945 10.524 1.26269 10.6335 1.30668 10.7353C1.35066 10.8371 1.41452 10.929 1.49449 11.0058L6.49449 16.0058C6.65078 16.162 6.86271 16.2498 7.08369 16.2498C7.30466 16.2498 7.51659 16.162 7.67288 16.0058L18.5062 5.17248C18.6266 5.05543 18.7089 4.90473 18.7422 4.74013C18.7755 4.57553 18.7583 4.40471 18.6928 4.25005C18.6274 4.0954 18.5167 3.96413 18.3754 3.87343C18.234 3.78274 18.0686 3.73687 17.9007 3.74182Z" fill="#989CAA"/>
</g>
</svg>
