<svg width="34" height="26" viewBox="0 0 34 26" fill="none" xmlns="http://www.w3.org/2000/svg">
<path d="M24 0.499923C24.2209 0.496799 24.4402 0.537601 24.6451 0.619958C24.85 0.702314 25.0366 0.824582 25.1939 0.979656C25.3511 1.13473 25.476 1.31952 25.5613 1.52328C25.6465 1.72704 25.6904 1.94571 25.6904 2.16659C25.6904 2.38746 25.6465 2.60614 25.5613 2.8099C25.476 3.01366 25.3511 3.19845 25.1939 3.35352C25.0366 3.5086 24.85 3.63086 24.6451 3.71322C24.4402 3.79558 24.2209 3.83638 24 3.83326H2.00003C1.77917 3.83638 1.5599 3.79558 1.35495 3.71322C1.15001 3.63086 0.963474 3.5086 0.80619 3.35352C0.648907 3.19845 0.524014 3.01366 0.438766 2.8099C0.353519 2.60614 0.309624 2.38746 0.309624 2.16659C0.309624 1.94571 0.353519 1.72704 0.438766 1.52328C0.524014 1.31952 0.648907 1.13473 0.80619 0.979656C0.963474 0.824582 1.15001 0.702314 1.35495 0.619958C1.5599 0.537601 1.77917 0.496799 2.00003 0.499923H24ZM32 11.3333C32.2209 11.3301 32.4402 11.3709 32.6451 11.4533C32.85 11.5356 33.0366 11.6579 33.1939 11.813C33.3511 11.9681 33.476 12.1529 33.5613 12.3566C33.6465 12.5604 33.6904 12.779 33.6904 12.9999C33.6904 13.2208 33.6465 13.4395 33.5613 13.6432C33.476 13.847 33.3511 14.0318 33.1939 14.1869C33.0366 14.3419 32.85 14.4642 32.6451 14.5466C32.4402 14.6289 32.2209 14.6697 32 14.6666H2.00003C1.77917 14.6697 1.5599 14.6289 1.35495 14.5466C1.15001 14.4642 0.963474 14.3419 0.80619 14.1869C0.648907 14.0318 0.524014 13.847 0.438766 13.6432C0.353519 13.4395 0.309624 13.2208 0.309624 12.9999C0.309624 12.779 0.353519 12.5604 0.438766 12.3566C0.524014 12.1529 0.648907 11.9681 0.80619 11.813C0.963474 11.6579 1.15001 11.5356 1.35495 11.4533C1.5599 11.3709 1.77917 11.3301 2.00003 11.3333H32ZM13 22.1666C13.2209 22.1635 13.4402 22.2043 13.6451 22.2866C13.85 22.369 14.0366 22.4912 14.1939 22.6463C14.3511 22.8014 14.476 22.9862 14.5613 23.1899C14.6465 23.3937 14.6904 23.6124 14.6904 23.8333C14.6904 24.0541 14.6465 24.2728 14.5613 24.4766C14.476 24.6803 14.3511 24.8651 14.1939 25.0202C14.0366 25.1753 13.85 25.2975 13.6451 25.3799C13.4402 25.4622 13.2209 25.503 13 25.4999H2.00003C1.77917 25.503 1.5599 25.4622 1.35495 25.3799C1.15001 25.2975 0.963474 25.1753 0.80619 25.0202C0.648907 24.8651 0.524014 24.6803 0.438766 24.4766C0.353519 24.2728 0.309624 24.0541 0.309624 23.8333C0.309624 23.6124 0.353519 23.3937 0.438766 23.1899C0.524014 22.9862 0.648907 22.8014 0.80619 22.6463C0.963474 22.4912 1.15001 22.369 1.35495 22.2866C1.5599 22.2043 1.77917 22.1635 2.00003 22.1666H13Z" fill="#DEE9EE"/>
</svg>
