<svg width="30" height="30" viewBox="0 0 30 30" fill="none" xmlns="http://www.w3.org/2000/svg">
<g clip-path="url(#clip0_605_462)">
<path opacity="0.45" d="M26.2491 7.04868C26.2678 6.68493 25.9878 6.37493 25.6241 6.35618L25.1691 6.33243C23.2603 6.23493 21.6328 7.70243 21.5353 9.61118L21.4453 11.3662L20.5178 10.4387L13.1416 3.06243C12.4441 2.36493 11.3103 2.36493 10.6128 3.06243C9.91531 3.75993 9.91531 4.89368 10.6128 5.59118L15.2503 10.2287L14.4078 11.0712L8.36156 5.02743C7.66406 4.32993 6.53031 4.32993 5.83281 5.02743C5.13531 5.72493 5.13531 6.85868 5.83281 7.55618L12.2216 13.9449L11.4928 14.9024L6.39656 9.80743C5.69906 9.10993 4.56531 9.10993 3.86781 9.80743C3.17031 10.5049 3.17031 11.6387 3.86781 12.3362L9.30906 17.7774L8.58031 18.7349L5.55281 15.7074C4.85531 15.0099 3.72156 15.0099 3.02406 15.7074C2.32531 16.4049 2.32531 17.5387 3.02406 18.2362L6.39656 21.6087L8.98031 24.1924L10.1903 25.4024C12.9841 28.1962 17.5141 28.1962 20.3078 25.4024L24.1641 21.5462C25.2166 20.4937 25.7241 19.1087 25.7016 17.7299L26.2491 7.04868Z" fill="#20D091"/>
<path d="M20.0011 6.2499C19.5973 6.2499 19.2011 6.0549 18.9598 5.69365L16.4598 1.94365C16.0773 1.36865 16.2323 0.593652 16.8061 0.209902C17.3786 -0.173848 18.1573 -0.0175975 18.5398 0.556152L21.0398 4.30615C21.4223 4.88115 21.2673 5.65615 20.6936 6.0399C20.4798 6.18115 20.2386 6.2499 20.0011 6.2499Z" fill="#20D091"/>
<path d="M6.24859 28.7499C6.01109 28.7499 5.76984 28.6812 5.55609 28.5399L1.80609 26.0399C1.23234 25.6562 1.07734 24.8812 1.45984 24.3062C1.84234 23.7312 2.61859 23.5774 3.19359 23.9599L6.94359 26.4599C7.51734 26.8437 7.67234 27.6187 7.28984 28.1937C7.04859 28.5549 6.65234 28.7499 6.24859 28.7499Z" fill="#20D091"/>
</g>
<defs>
<clipPath id="clip0_605_462">
<rect width="30" height="30" fill="white"/>
</clipPath>
</defs>
</svg>
