<svg width="220" height="55" viewBox="0 0 220 55" fill="none" xmlns="http://www.w3.org/2000/svg">
<g clip-path="url(#clip0_605_402)">
<path d="M54.0298 14.3156V37.3228L16.707 0H39.7199L54.0298 14.3156Z" fill="#20D091"/>
<path d="M53.9391 38.2204L38.2204 53.9391C37.8795 54.28 37.4251 54.4674 36.9479 54.4674H0V17.7184C0 16.764 0.380613 15.8437 1.05663 15.1677L16.2925 0V38.2204H53.9391Z" fill="#197BFF"/>
<path d="M61.6992 22.1835C61.6992 13.9804 66.8858 8.73706 74.9866 8.73706H76.2591C84.3599 8.73706 89.5465 13.9804 89.5465 22.1835V25.2H68.4253C69.1126 28.8527 71.4418 30.7615 75.0434 30.7615H87.9104L84.8939 36.215H74.9923C66.8915 36.215 61.7049 30.9205 61.7049 22.7175V22.1892L61.6992 22.1835ZM82.9283 20.3827C82.4 16.3607 80.0141 14.1906 76.2023 14.1906H75.0377C71.2259 14.1906 68.8457 16.3607 68.3117 20.3827H82.9227H82.9283Z" fill="white"/>
<path d="M94.733 30.7614H105.64C107.861 30.7614 108.975 29.8639 108.975 28.4323C108.975 27.1087 107.969 26.1543 105.907 25.7339L99.1299 24.4103C94.1536 23.4048 91.6143 20.1724 91.6143 16.4174C91.6143 12.6624 94.5796 8.74268 100.772 8.74268H115.224L112.207 14.1962H101.459C99.2379 14.1962 98.1244 15.0938 98.1244 16.4742C98.1244 17.8547 99.1811 18.7522 101.192 19.1726L107.969 20.4962C112.895 21.5017 115.485 24.7852 115.485 28.4891C115.485 32.193 112.52 36.2207 106.271 36.2207H91.7108L94.7273 30.7671L94.733 30.7614Z" fill="white"/>
<path d="M118.934 0H125.444V5.40243H118.934V0ZM125.444 8.73706V36.2094H118.934V8.73706H125.444Z" fill="white"/>
<path d="M154.824 16.889V36.2094H148.314V17.5252C148.314 15.4063 147.042 14.1906 144.98 14.1906H136.828V36.2094H130.317V8.73706H146.042C151.546 8.73706 154.83 11.8104 154.83 16.889H154.824Z" fill="white"/>
<path d="M172.986 8.73713H171.713C163.612 8.73713 158.426 13.9805 158.426 22.1836V22.7119C158.426 26.785 159.698 30.1367 161.976 32.4772C163.22 30.8638 164.771 29.5004 166.549 28.4779C165.498 27.1259 164.936 25.1887 164.936 22.7062V22.1779C164.936 16.9856 167.43 14.185 171.764 14.185H172.929C177.275 14.185 179.757 16.9856 179.757 22.1779V22.7062C179.757 24.4445 179.484 25.9158 178.956 27.1031C181.001 27.7394 182.865 28.7903 184.444 30.1594C185.625 28.1029 186.262 25.5864 186.262 22.7062V22.1779C186.262 13.9691 181.075 8.73145 172.974 8.73145L172.986 8.73713Z" fill="white"/>
<path d="M190.193 0H196.704V5.40243H190.193V0ZM196.704 8.73706V36.2094H190.193V8.73706H196.704Z" fill="white"/>
<path d="M217.035 14.1907H212.007C209.519 14.1907 208.087 15.5654 208.087 18.1616V36.2151H201.577V17.6276C201.577 12.5433 205.281 8.73145 210.791 8.73145H220.006L217.04 14.185L217.035 14.1907Z" fill="white"/>
<path d="M61.699 51.9792C62.3467 51.9792 62.8636 51.9111 63.2499 51.769C63.6362 51.627 63.9089 51.3998 64.0736 51.0817C64.2384 50.7635 64.3236 50.3659 64.3236 49.8887V42.4185H66.5902V49.8887C66.5902 50.8317 66.4084 51.6384 66.0448 52.3144C65.6813 52.9904 65.17 53.513 64.511 53.8766C63.8521 54.2402 63.0567 54.439 62.1137 54.4617L61.6934 51.9735L61.699 51.9792ZM65.9994 49.0934V46.4859H68.9648V49.0934H65.9994ZM68.9648 49.0934V46.4859C69.0954 46.4859 69.1977 46.6052 69.2659 46.8438C69.334 47.0824 69.3624 47.3948 69.3624 47.7811C69.3624 48.1674 69.3283 48.4969 69.2659 48.7355C69.1977 48.9741 69.1011 49.0934 68.9648 49.0934Z" fill="white"/>
<path d="M68.965 49.0933C68.8173 49.0933 68.7151 48.974 68.6583 48.7354C68.6015 48.4968 68.5674 48.173 68.5674 47.7583C68.5674 47.372 68.5958 47.0653 68.6583 46.8324C68.7208 46.5995 68.823 46.4858 68.965 46.4858V49.0933ZM68.965 49.0933V46.4858H72.6291V49.0933H68.965ZM72.6291 49.0933V46.4858C72.7768 46.4858 72.8791 46.6051 72.9359 46.8437C72.9984 47.0823 73.0268 47.3948 73.0268 47.7811C73.0268 48.1674 72.9984 48.4968 72.9359 48.7354C72.8734 48.974 72.7712 49.0933 72.6291 49.0933Z" fill="white"/>
<path d="M72.6232 49.0933C72.4755 49.0933 72.3733 48.974 72.3165 48.7354C72.2597 48.4968 72.2256 48.173 72.2256 47.7583C72.2256 47.372 72.254 47.0653 72.3165 46.8324C72.379 46.5995 72.4812 46.4858 72.6232 46.4858V49.0933ZM72.6232 49.0933V46.4858H76.2873V49.0933H72.6232ZM76.2873 49.0933V46.4858C76.435 46.4858 76.5373 46.6051 76.5941 46.8437C76.6566 47.0823 76.685 47.3948 76.685 47.7811C76.685 48.1674 76.6566 48.4968 76.5941 48.7354C76.5316 48.974 76.4294 49.0933 76.2873 49.0933Z" fill="white"/>
<path d="M76.2873 49.0933C76.1396 49.0933 76.0374 48.974 75.9805 48.7354C75.9237 48.4968 75.8896 48.173 75.8896 47.7583C75.8896 47.372 75.9181 47.0653 75.9805 46.8324C76.043 46.5995 76.1453 46.4858 76.2873 46.4858V49.0933ZM76.2873 49.0933V46.4858H79.9514V49.0933H76.2873ZM79.9514 49.0933V46.4858C80.0991 46.4858 80.2014 46.6051 80.2582 46.8437C80.3207 47.0823 80.3491 47.3948 80.3491 47.7811C80.3491 48.1674 80.3207 48.4968 80.2582 48.7354C80.1957 48.974 80.0934 49.0933 79.9514 49.0933Z" fill="white"/>
<path d="M79.9455 49.0933C79.7978 49.0933 79.6956 48.974 79.6387 48.7354C79.5819 48.4968 79.5479 48.173 79.5479 47.7583C79.5479 47.372 79.5763 47.0653 79.6387 46.8324C79.7012 46.5995 79.8035 46.4858 79.9455 46.4858V49.0933ZM79.9455 49.0933V46.4858H83.6096V49.0933H79.9455ZM83.6096 49.0933V46.4858C83.7573 46.4858 83.8596 46.6051 83.9164 46.8437C83.9789 47.0823 84.0073 47.3948 84.0073 47.7811C84.0073 48.1674 83.9789 48.4968 83.9164 48.7354C83.8539 48.974 83.7516 49.0933 83.6096 49.0933Z" fill="white"/>
<path d="M83.6096 49.0933C83.4619 49.0933 83.3596 48.974 83.3028 48.7354C83.246 48.4968 83.2119 48.173 83.2119 47.7583C83.2119 47.372 83.2403 47.0653 83.3028 46.8324C83.3653 46.5995 83.4675 46.4858 83.6096 46.4858V49.0933ZM83.6096 49.0933V46.4858H87.2737V49.0933H83.6096ZM87.2737 49.0933V46.4858C87.4214 46.4858 87.5236 46.6051 87.5804 46.8437C87.6429 47.0823 87.6713 47.3948 87.6713 47.7811C87.6713 48.1674 87.6429 48.4968 87.5804 48.7354C87.518 48.974 87.4157 49.0933 87.2737 49.0933Z" fill="white"/>
<path d="M87.2687 49.0933C87.121 49.0933 87.0188 48.974 86.962 48.7354C86.9052 48.4968 86.8711 48.173 86.8711 47.7583C86.8711 47.372 86.8995 47.0653 86.962 46.8324C87.0245 46.5995 87.1267 46.4858 87.2687 46.4858V49.0933ZM87.2687 49.0933V46.4858H90.9329V49.0933H87.2687ZM90.9329 49.0933V46.4858C91.0806 46.4858 91.1828 46.6051 91.2396 46.8437C91.3021 47.0823 91.3305 47.3948 91.3305 47.7811C91.3305 48.1674 91.3021 48.4968 91.2396 48.7354C91.1771 48.974 91.0749 49.0933 90.9329 49.0933Z" fill="white"/>
<path d="M90.9328 49.0933C90.7851 49.0933 90.6829 48.974 90.6261 48.7354C90.5692 48.4968 90.5352 48.173 90.5352 47.7583C90.5352 47.372 90.5636 47.0653 90.6261 46.8324C90.6885 46.5995 90.7908 46.4858 90.9328 46.4858V49.0933ZM90.9328 49.0933V46.4858H94.5969V49.0933H90.9328ZM94.5969 49.0933V46.4858C94.7446 46.4858 94.8469 46.6051 94.9037 46.8437C94.9662 47.0823 94.9946 47.3948 94.9946 47.7811C94.9946 48.1674 94.9662 48.4968 94.9037 48.7354C94.8412 48.974 94.7389 49.0933 94.5969 49.0933Z" fill="white"/>
<path d="M94.591 49.0933C94.4433 49.0933 94.3411 48.974 94.2843 48.7354C94.2274 48.4968 94.1934 48.173 94.1934 47.7583C94.1934 47.372 94.2218 47.0653 94.2843 46.8324C94.3467 46.5995 94.449 46.4858 94.591 46.4858V49.0933ZM94.591 49.0933V46.4858H98.2551V49.0933H94.591ZM98.2551 49.0933V46.4858C98.4028 46.4858 98.5051 46.6051 98.5619 46.8437C98.6244 47.0823 98.6528 47.3948 98.6528 47.7811C98.6528 48.1674 98.6244 48.4968 98.5619 48.7354C98.4994 48.974 98.3972 49.0933 98.2551 49.0933Z" fill="white"/>
<path d="M98.2551 49.0933C98.1074 49.0933 98.0051 48.974 97.9483 48.7354C97.8915 48.4968 97.8574 48.173 97.8574 47.7583C97.8574 47.372 97.8858 47.0653 97.9483 46.8324C98.0108 46.5995 98.1131 46.4858 98.2551 46.4858V49.0933ZM98.2551 49.0933V46.4858H101.919V49.0933H98.2551ZM101.919 49.0933V46.4858C102.067 46.4858 102.169 46.6051 102.226 46.8437C102.288 47.0823 102.317 47.3948 102.317 47.7811C102.317 48.1674 102.288 48.4968 102.226 48.7354C102.163 48.974 102.061 49.0933 101.919 49.0933Z" fill="white"/>
<path d="M101.919 49.0933C101.771 49.0933 101.669 48.974 101.612 48.7354C101.556 48.4968 101.521 48.173 101.521 47.7583C101.521 47.372 101.55 47.0653 101.612 46.8324C101.675 46.5995 101.777 46.4858 101.919 46.4858V49.0933ZM101.919 49.0933V46.4858H105.583V49.0933H101.919ZM105.583 49.0933V46.4858C105.731 46.4858 105.833 46.6051 105.89 46.8437C105.952 47.0823 105.981 47.3948 105.981 47.7811C105.981 48.1674 105.952 48.4968 105.89 48.7354C105.828 48.974 105.725 49.0933 105.583 49.0933Z" fill="white"/>
<path d="M105.577 49.0933C105.43 49.0933 105.327 48.974 105.271 48.7354C105.214 48.4968 105.18 48.173 105.18 47.7583C105.18 47.372 105.208 47.0653 105.271 46.8324C105.333 46.5995 105.435 46.4858 105.577 46.4858V49.0933ZM105.577 49.0933V46.4858H109.241V49.0933H105.577ZM109.241 49.0933V46.4858C109.389 46.4858 109.491 46.6051 109.548 46.8437C109.611 47.0823 109.639 47.3948 109.639 47.7811C109.639 48.1674 109.611 48.4968 109.548 48.7354C109.486 48.974 109.383 49.0933 109.241 49.0933Z" fill="white"/>
<path d="M109.241 49.0933C109.094 49.0933 108.991 48.974 108.935 48.7354C108.878 48.4968 108.844 48.173 108.844 47.7583C108.844 47.372 108.872 47.0653 108.935 46.8324C108.997 46.5995 109.099 46.4858 109.241 46.4858V49.0933ZM109.241 49.0933V46.4858H112.906V49.0933H109.241ZM112.906 49.0933V46.4858C113.053 46.4858 113.155 46.6051 113.212 46.8437C113.275 47.0823 113.303 47.3948 113.303 47.7811C113.303 48.1674 113.275 48.4968 113.212 48.7354C113.15 48.974 113.048 49.0933 112.906 49.0933Z" fill="white"/>
<path d="M112.9 49.0933C112.753 49.0933 112.645 48.9684 112.582 48.7241C112.52 48.4798 112.491 48.1446 112.491 47.7186C112.491 47.3209 112.52 47.0028 112.582 46.7642C112.645 46.5256 112.753 46.4063 112.9 46.4063V49.099V49.0933ZM112.9 49.0933V46.4006H116.678V49.0933H112.9ZM116.678 49.0933V46.4006C116.826 46.4006 116.934 46.5256 116.996 46.7699C117.059 47.0142 117.087 47.338 117.087 47.7356C117.087 48.1333 117.059 48.4741 116.996 48.7241C116.934 48.9684 116.826 49.0933 116.678 49.0933Z" fill="white"/>
<path d="M116.678 49.0933C116.53 49.0933 116.422 48.9684 116.359 48.7241C116.297 48.4798 116.269 48.1446 116.269 47.7186C116.269 47.3209 116.297 47.0028 116.359 46.7642C116.422 46.5256 116.53 46.4063 116.678 46.4063V49.099V49.0933ZM116.678 49.0933V46.4006H120.455V49.0933H116.678ZM120.455 49.0933V46.4006C120.603 46.4006 120.711 46.5256 120.773 46.7699C120.836 47.0142 120.864 47.338 120.864 47.7356C120.864 48.1333 120.836 48.4741 120.773 48.7241C120.711 48.9684 120.603 49.0933 120.455 49.0933Z" fill="white"/>
<path d="M120.456 49.0933C120.308 49.0933 120.2 48.9684 120.138 48.7241C120.075 48.4798 120.047 48.1446 120.047 47.7186C120.047 47.3209 120.075 47.0028 120.138 46.7642C120.2 46.5256 120.308 46.4063 120.456 46.4063V49.099V49.0933ZM120.456 49.0933V46.4006H124.234V49.0933H120.456ZM124.234 49.0933V46.4006C124.381 46.4006 124.489 46.5256 124.552 46.7699C124.614 47.0142 124.643 47.338 124.643 47.7356C124.643 48.1333 124.614 48.4741 124.552 48.7241C124.489 48.9684 124.381 49.0933 124.234 49.0933Z" fill="white"/>
<path d="M124.233 49.0933C124.086 49.0933 123.978 48.9684 123.915 48.7241C123.853 48.4798 123.824 48.1446 123.824 47.7186C123.824 47.3209 123.853 47.0028 123.915 46.7642C123.978 46.5256 124.086 46.4063 124.233 46.4063V49.099V49.0933ZM124.233 49.0933V46.4006H128.011V49.0933H124.233ZM128.011 49.0933V46.4006C128.159 46.4006 128.267 46.5256 128.329 46.7699C128.392 47.0142 128.42 47.338 128.42 47.7356C128.42 48.1333 128.392 48.4741 128.329 48.7241C128.267 48.9684 128.159 49.0933 128.011 49.0933Z" fill="white"/>
<path d="M128.011 49.0933C127.863 49.0933 127.755 48.9684 127.692 48.7241C127.63 48.4798 127.602 48.1446 127.602 47.7186C127.602 47.3209 127.63 47.0028 127.692 46.7642C127.755 46.5256 127.863 46.4063 128.011 46.4063V49.099V49.0933ZM128.011 49.0933V46.4006H131.788V49.0933H128.011ZM131.788 49.0933V46.4006C131.936 46.4006 132.044 46.5256 132.106 46.7699C132.169 47.0142 132.197 47.338 132.197 47.7356C132.197 48.1333 132.169 48.4741 132.106 48.7241C132.044 48.9684 131.936 49.0933 131.788 49.0933Z" fill="white"/>
<path d="M131.789 49.0933C131.641 49.0933 131.533 48.9684 131.471 48.7241C131.408 48.4798 131.38 48.1446 131.38 47.7186C131.38 47.3209 131.408 47.0028 131.471 46.7642C131.533 46.5256 131.641 46.4063 131.789 46.4063V49.099V49.0933ZM131.789 49.0933V46.4006H135.567V49.0933H131.789ZM135.567 49.0933V46.4006C135.714 46.4006 135.822 46.5256 135.885 46.7699C135.947 47.0142 135.976 47.338 135.976 47.7356C135.976 48.1333 135.947 48.4741 135.885 48.7241C135.822 48.9684 135.714 49.0933 135.567 49.0933Z" fill="white"/>
<path d="M135.572 49.0933C135.425 49.0933 135.323 48.974 135.266 48.7354C135.209 48.4968 135.175 48.173 135.175 47.7583C135.175 47.372 135.203 47.0653 135.266 46.8324C135.328 46.5995 135.43 46.4858 135.572 46.4858V49.0933ZM135.572 49.0933V46.4858H139.237V49.0933H135.572ZM139.237 49.0933V46.4858C139.384 46.4858 139.487 46.6051 139.543 46.8437C139.606 47.0823 139.634 47.3948 139.634 47.7811C139.634 48.1674 139.606 48.4968 139.543 48.7354C139.481 48.974 139.379 49.0933 139.237 49.0933Z" fill="white"/>
<path d="M139.231 49.0933C139.083 49.0933 138.981 48.974 138.924 48.7354C138.867 48.4968 138.833 48.173 138.833 47.7583C138.833 47.372 138.861 47.0653 138.924 46.8324C138.986 46.5995 139.089 46.4858 139.231 46.4858V49.0933ZM139.231 49.0933V46.4858H142.895V49.0933H139.231ZM142.895 49.0933V46.4858C143.042 46.4858 143.145 46.6051 143.202 46.8437C143.264 47.0823 143.292 47.3948 143.292 47.7811C143.292 48.1674 143.264 48.4968 143.202 48.7354C143.139 48.974 143.037 49.0933 142.895 49.0933Z" fill="white"/>
<path d="M142.895 49.0933C142.747 49.0933 142.645 48.974 142.588 48.7354C142.531 48.4968 142.497 48.173 142.497 47.7583C142.497 47.372 142.525 47.0653 142.588 46.8324C142.65 46.5995 142.753 46.4858 142.895 46.4858V49.0933ZM142.895 49.0933V46.4858H146.559V49.0933H142.895ZM146.559 49.0933V46.4858C146.707 46.4858 146.809 46.6051 146.866 46.8437C146.928 47.0823 146.956 47.3948 146.956 47.7811C146.956 48.1674 146.928 48.4968 146.866 48.7354C146.803 48.974 146.701 49.0933 146.559 49.0933Z" fill="white"/>
<path d="M146.553 49.0933C146.405 49.0933 146.303 48.974 146.246 48.7354C146.189 48.4968 146.155 48.173 146.155 47.7583C146.155 47.372 146.184 47.0653 146.246 46.8324C146.309 46.5995 146.411 46.4858 146.553 46.4858V49.0933ZM146.553 49.0933V46.4858H150.217V49.0933H146.553ZM150.217 49.0933V46.4858C150.365 46.4858 150.467 46.6051 150.524 46.8437C150.586 47.0823 150.615 47.3948 150.615 47.7811C150.615 48.1674 150.586 48.4968 150.524 48.7354C150.461 48.974 150.359 49.0933 150.217 49.0933Z" fill="white"/>
<path d="M150.217 49.0933C150.069 49.0933 149.967 48.974 149.91 48.7354C149.853 48.4968 149.819 48.173 149.819 47.7583C149.819 47.372 149.848 47.0653 149.91 46.8324C149.973 46.5995 150.075 46.4858 150.217 46.4858V49.0933ZM150.217 49.0933V46.4858H153.881V49.0933H150.217ZM153.881 49.0933V46.4858C154.029 46.4858 154.131 46.6051 154.188 46.8437C154.25 47.0823 154.279 47.3948 154.279 47.7811C154.279 48.1674 154.25 48.4968 154.188 48.7354C154.125 48.974 154.023 49.0933 153.881 49.0933Z" fill="white"/>
<path d="M153.875 49.0933C153.727 49.0933 153.625 48.974 153.568 48.7354C153.512 48.4968 153.478 48.173 153.478 47.7583C153.478 47.372 153.506 47.0653 153.568 46.8324C153.631 46.5995 153.733 46.4858 153.875 46.4858V49.0933ZM153.875 49.0933V46.4858H157.539V49.0933H153.875ZM157.539 49.0933V46.4858C157.687 46.4858 157.789 46.6051 157.846 46.8437C157.909 47.0823 157.937 47.3948 157.937 47.7811C157.937 48.1674 157.909 48.4968 157.846 48.7354C157.784 48.974 157.681 49.0933 157.539 49.0933Z" fill="white"/>
<path d="M157.539 49.0933C157.392 49.0933 157.289 48.974 157.232 48.7354C157.176 48.4968 157.142 48.173 157.142 47.7583C157.142 47.372 157.17 47.0653 157.232 46.8324C157.295 46.5995 157.397 46.4858 157.539 46.4858V49.0933ZM157.539 49.0933V46.4858H161.203V49.0933H157.539ZM161.203 49.0933V46.4858C161.351 46.4858 161.453 46.6051 161.51 46.8437C161.573 47.0823 161.601 47.3948 161.601 47.7811C161.601 48.1674 161.573 48.4968 161.51 48.7354C161.448 48.974 161.345 49.0933 161.203 49.0933Z" fill="white"/>
<path d="M161.198 49.0934C161.051 49.0934 160.948 48.9741 160.892 48.7355C160.835 48.4969 160.801 48.1731 160.801 47.7584C160.801 47.3721 160.829 47.0654 160.892 46.8324C160.954 46.5995 161.056 46.4859 161.198 46.4859V49.0934ZM161.198 49.0934V46.4859H162.232C162.789 46.4859 163.209 46.4405 163.488 46.3553C163.766 46.27 163.954 46.1053 164.045 45.8667C164.135 45.6281 164.187 45.2816 164.187 44.8328V39.3395H166.453V44.8328C166.453 45.7758 166.3 46.5598 165.993 47.1903C165.686 47.8209 165.226 48.2924 164.613 48.6105C163.999 48.9287 163.204 49.0877 162.232 49.0877H161.198V49.0934ZM165.277 36.7547C164.88 36.7547 164.539 36.6184 164.26 36.3457C163.982 36.073 163.84 35.7322 163.84 35.3232C163.84 34.9141 163.982 34.5733 164.26 34.3006C164.539 34.0279 164.88 33.8916 165.277 33.8916C165.703 33.8916 166.05 34.0279 166.323 34.3006C166.595 34.5733 166.732 34.9141 166.732 35.3232C166.732 35.7322 166.595 36.0787 166.323 36.3457C166.05 36.6184 165.703 36.7547 165.277 36.7547ZM168.402 49.0934C167.447 49.0934 166.658 48.9343 166.033 48.6162C165.408 48.2981 164.942 47.8209 164.641 47.196C164.334 46.5654 164.181 45.7815 164.181 44.8385H166.447C166.447 45.2873 166.499 45.6338 166.595 45.8724C166.692 46.111 166.885 46.2757 167.163 46.3609C167.442 46.4462 167.851 46.4916 168.396 46.4916H169.191V49.0991H168.396L168.402 49.0934ZM169.197 49.0934V46.4859C169.345 46.4859 169.447 46.6052 169.504 46.8438C169.566 47.0824 169.595 47.3948 169.595 47.7811C169.595 48.1674 169.566 48.4969 169.504 48.7355C169.447 48.9741 169.339 49.0934 169.197 49.0934Z" fill="white"/>
<path d="M169.202 49.0933C169.055 49.0933 168.952 48.974 168.896 48.7354C168.839 48.4968 168.805 48.173 168.805 47.7583C168.805 47.372 168.833 47.0653 168.896 46.8324C168.958 46.5995 169.06 46.4858 169.202 46.4858V49.0933ZM172.048 39.3451H174.315V49.0933H169.202V46.4858H172.048V39.3394V39.3451ZM170.935 36.9194V35.4253H175.451V36.9194H170.935ZM173.878 36.482C173.122 36.482 172.503 36.3343 172.026 36.0445C171.549 35.7548 171.31 35.3231 171.31 34.7493C171.31 34.3517 171.424 34.0108 171.656 33.7268C171.889 33.4427 172.185 33.2212 172.554 33.0678C172.918 32.9144 173.321 32.8406 173.758 32.8406C174.008 32.8406 174.264 32.869 174.514 32.9201C174.764 32.9712 175.002 33.0621 175.23 33.1814L174.673 34.3971C174.554 34.3687 174.423 34.3517 174.275 34.3346C174.128 34.3233 173.997 34.3176 173.878 34.3176C173.48 34.3176 173.168 34.3744 172.94 34.488C172.713 34.6016 172.599 34.7323 172.599 34.8743C172.599 35.005 172.713 35.1356 172.94 35.2549C173.168 35.3742 173.48 35.4367 173.878 35.4367V36.4933V36.482Z" fill="white"/>
<path d="M177.24 49.0934V32.5396H179.507V49.0934H177.24Z" fill="white"/>
<path d="M180.603 51.9792C181.251 51.9792 181.768 51.9111 182.154 51.7691C182.54 51.627 182.813 51.3998 182.978 51.0817C183.143 50.7635 183.228 50.3659 183.228 49.8887V39.3395H185.494V49.8887C185.494 50.8317 185.313 51.6384 184.949 52.3144C184.586 52.9904 184.074 53.5131 183.415 53.8766C182.756 54.2402 181.961 54.439 181.018 54.4617L180.598 51.9736L180.603 51.9792ZM184.364 36.7547C183.966 36.7547 183.626 36.6184 183.347 36.3457C183.069 36.073 182.932 35.7322 182.932 35.3232C182.932 34.9141 183.069 34.5733 183.347 34.3006C183.626 34.0279 183.966 33.8916 184.364 33.8916C184.79 33.8916 185.137 34.0279 185.409 34.3006C185.682 34.5733 185.818 34.9141 185.818 35.3232C185.818 35.7322 185.682 36.0787 185.409 36.3457C185.137 36.6184 184.79 36.7547 184.364 36.7547ZM184.904 49.0934V46.4859H187.869V49.0934H184.904ZM187.869 49.0934V46.4859C188 46.4859 188.102 46.6052 188.17 46.8438C188.238 47.0824 188.272 47.3948 188.272 47.7811C188.272 48.1674 188.238 48.4969 188.17 48.7355C188.102 48.9741 188.005 49.0934 187.869 49.0934Z" fill="white"/>
<path d="M187.863 49.0933C187.716 49.0933 187.614 48.974 187.557 48.7354C187.5 48.4968 187.466 48.173 187.466 47.7583C187.466 47.372 187.494 47.0653 187.557 46.8324C187.619 46.5995 187.721 46.4858 187.863 46.4858V49.0933ZM187.863 49.0933V46.4858H191.528V49.0933H187.863ZM191.528 49.0933V46.4858C191.675 46.4858 191.778 46.6051 191.834 46.8437C191.897 47.0823 191.925 47.3948 191.925 47.7811C191.925 48.1674 191.897 48.4968 191.834 48.7354C191.778 48.974 191.67 49.0933 191.528 49.0933Z" fill="white"/>
<path d="M191.528 49.0933C191.38 49.0933 191.273 48.9684 191.21 48.7241C191.148 48.4798 191.119 48.1446 191.119 47.7186C191.119 47.3209 191.148 47.0028 191.21 46.7642C191.273 46.5256 191.38 46.4063 191.528 46.4063V49.099V49.0933ZM191.528 49.0933V46.4006H195.306V49.0933H191.528ZM195.306 49.0933V46.4006C195.459 46.4006 195.562 46.5256 195.624 46.7699C195.686 47.0142 195.715 47.338 195.715 47.7356C195.715 48.1333 195.686 48.4741 195.624 48.7241C195.562 48.9684 195.454 49.0933 195.306 49.0933Z" fill="white"/>
<path d="M195.306 49.0933C195.158 49.0933 195.05 48.9684 194.987 48.7241C194.925 48.4798 194.896 48.1446 194.896 47.7186C194.896 47.3209 194.925 47.0028 194.987 46.7642C195.05 46.5256 195.158 46.4063 195.306 46.4063V49.099V49.0933ZM195.306 49.0933V46.4006H199.083V49.0933H195.306ZM199.083 49.0933V46.4006C199.237 46.4006 199.339 46.5256 199.401 46.7699C199.464 47.0142 199.492 47.338 199.492 47.7356C199.492 48.1333 199.464 48.4741 199.401 48.7241C199.339 48.9684 199.231 49.0933 199.083 49.0933Z" fill="white"/>
<path d="M199.083 49.0933C198.936 49.0933 198.833 48.974 198.776 48.7354C198.72 48.4968 198.686 48.173 198.686 47.7583C198.686 47.372 198.714 47.0653 198.776 46.8324C198.839 46.5995 198.941 46.4858 199.083 46.4858V49.0933ZM199.083 49.0933V46.4858H202.747V49.0933H199.083ZM202.747 49.0933V46.4858C202.895 46.4858 202.997 46.6051 203.054 46.8437C203.117 47.0823 203.145 47.3948 203.145 47.7811C203.145 48.1674 203.117 48.4968 203.054 48.7354C202.997 48.974 202.889 49.0933 202.747 49.0933Z" fill="white"/>
<path d="M202.747 49.0933C202.6 49.0933 202.497 48.974 202.44 48.7354C202.384 48.4968 202.35 48.173 202.35 47.7583C202.35 47.372 202.378 47.0652 202.44 46.8323C202.503 46.5994 202.605 46.4858 202.747 46.4858V49.0933ZM205.593 39.345H207.86V49.0933H202.747V46.4858H205.593V39.3394V39.345ZM204.417 53.9333C204.048 53.9333 203.741 53.8083 203.503 53.5641C203.264 53.3198 203.145 53.0187 203.145 52.6608C203.145 52.3029 203.264 51.9848 203.503 51.7576C203.741 51.5247 204.048 51.411 204.417 51.411C204.787 51.411 205.076 51.5247 205.321 51.7576C205.565 51.9905 205.69 52.2916 205.69 52.6608C205.69 53.0301 205.565 53.3198 205.321 53.5641C205.076 53.8083 204.775 53.9333 204.417 53.9333ZM207.343 53.9333C206.985 53.9333 206.684 53.8083 206.445 53.5641C206.207 53.3198 206.088 53.0187 206.088 52.6608C206.088 52.3029 206.207 51.9848 206.445 51.7576C206.684 51.5303 206.985 51.411 207.343 51.411C207.701 51.411 208.019 51.5247 208.258 51.7576C208.496 51.9905 208.616 52.2916 208.616 52.6608C208.616 53.0301 208.496 53.3198 208.258 53.5641C208.019 53.8083 207.712 53.9333 207.343 53.9333Z" fill="white"/>
<path d="M209.99 49.0934V46.4859H219.42V49.0934H209.99ZM211.325 36.4366V35.0448H211.825V31.8635H213.217V33.3746C213.404 33.2042 213.62 33.0679 213.865 32.9656C214.109 32.8633 214.376 32.8179 214.671 32.8179C215.217 32.8179 215.643 33.0167 215.955 33.4144C216.268 33.812 216.421 34.3574 216.421 35.0448V36.4366H211.325ZM217.733 49.0934C217.722 47.6732 217.472 46.412 216.989 45.3043C216.506 44.1965 215.807 43.2706 214.898 42.5264C213.99 41.7822 212.899 41.2652 211.626 40.9755L212.143 38.4703C213.751 38.8395 215.137 39.5156 216.302 40.4983C217.466 41.4811 218.375 42.7025 219.017 44.1681C219.659 45.6338 219.988 47.2755 220 49.0934H217.733ZM213.217 35.0448H214.967C214.955 34.7664 214.887 34.5392 214.768 34.3688C214.648 34.1983 214.478 34.1074 214.251 34.1074C213.933 34.1074 213.688 34.1983 213.512 34.3744C213.342 34.5505 213.24 34.7778 213.211 35.0391L213.217 35.0448Z" fill="white"/>
</g>
<defs>
<clipPath id="clip0_605_402">
<rect width="220" height="54.4674" fill="white"/>
</clipPath>
</defs>
</svg>
