<svg width="54" height="54" viewBox="0 0 54 54" fill="none" xmlns="http://www.w3.org/2000/svg">
<g id="Group 17">
<path id="Vector" d="M0.75 19.7499C0.75 13.0994 0.75 9.77406 2.04429 7.23386C3.18279 4.99944 4.99944 3.18279 7.23386 2.04429C9.77406 0.75 13.0994 0.75 19.7499 0.75H34.2501C40.9007 0.75 44.226 0.75 46.7661 2.04429C49.0005 3.18279 50.8172 4.99944 51.9557 7.23386C53.25 9.77406 53.25 13.0994 53.25 19.7499V34.2501C53.25 40.9007 53.25 44.226 51.9557 46.7661C50.8172 49.0005 49.0005 50.8172 46.7661 51.9557C44.226 53.25 40.9007 53.25 34.2501 53.25H19.7499C13.0994 53.25 9.77406 53.25 7.23386 51.9557C4.99944 50.8172 3.18279 49.0005 2.04429 46.7661C0.75 44.226 0.75 40.9007 0.75 34.2501V19.7499Z" fill="#001E36"/>
<path id="Vector_2" d="M12 39.2179V16.1314C12 15.9744 12.0656 15.8846 12.2188 15.8846C14.4793 15.8846 16.7389 15.75 18.9999 15.75C22.6691 15.75 26.6419 17.0046 28.0344 20.8429C28.3626 21.7852 28.5375 22.7499 28.5375 23.7596C28.5375 25.6892 28.1001 27.282 27.225 28.5384C24.7808 32.0481 20.5444 31.9935 16.7469 31.9935V39.1956C16.7766 39.4087 16.5949 39.5096 16.4188 39.5096H12.2625C12.0875 39.5096 12 39.4198 12 39.2179ZM16.7687 20.2147V27.7532C18.2745 27.8634 19.8501 27.8754 21.2968 27.3943C22.8941 26.9334 23.7688 25.551 23.7688 23.8943C23.8131 22.4826 23.0439 21.1281 21.7344 20.6186C20.3051 20.0242 18.3116 19.9886 16.7687 20.2147Z" fill="#31A8FF"/>
<path id="Vector_3" d="M42.1812 26.264C41.5193 25.9151 40.8143 25.6599 40.0855 25.5054C39.1491 25.2851 35.4557 24.5134 35.4542 26.4446C35.487 27.5227 37.1985 28.0509 37.9547 28.359C40.6095 29.2704 43.6137 30.8996 43.5546 34.1747C43.6358 38.2517 39.6855 39.8816 36.2995 39.882C34.5368 39.9002 32.7004 39.6272 31.0872 38.8704C30.933 38.7889 30.834 38.6147 30.8406 38.4369V34.5358C30.8232 34.3794 30.9912 34.2427 31.1224 34.3552C32.703 35.3111 34.5765 35.7754 36.4052 35.8001C37.2124 35.8001 38.8122 35.7219 38.8002 34.5358C38.8002 33.3977 36.8864 32.8744 36.1234 32.5852C35.0175 32.1905 33.969 31.6436 33.0066 30.9598C31.6615 30.0003 30.8177 28.4621 30.8406 26.7697C30.8327 22.9309 34.4689 21.2077 37.7436 21.207C39.2744 21.1942 40.9184 21.3077 42.3434 21.9294C42.5483 21.9896 42.5907 22.2056 42.5899 22.3989V26.0473C42.6029 26.2738 42.3514 26.3509 42.1812 26.264Z" fill="#31A8FF"/>
</g>
</svg>
