<svg width="54" height="54" viewBox="0 0 54 54" fill="none" xmlns="http://www.w3.org/2000/svg">
<g id="Group 18">
<path id="Vector" d="M0.75 19.7499C0.75 13.0994 0.75 9.77406 2.04429 7.23386C3.18279 4.99944 4.99944 3.18279 7.23386 2.04429C9.77406 0.75 13.0994 0.75 19.7499 0.75H34.2501C40.9007 0.75 44.226 0.75 46.7661 2.04429C49.0005 3.18279 50.8172 4.99944 51.9557 7.23386C53.25 9.77406 53.25 13.0994 53.25 19.7499V34.2501C53.25 40.9007 53.25 44.226 51.9557 46.7661C50.8172 49.0005 49.0005 50.8172 46.7661 51.9557C44.226 53.25 40.9007 53.25 34.2501 53.25H19.7499C13.0994 53.25 9.77406 53.25 7.23386 51.9557C4.99944 50.8172 3.18279 49.0005 2.04429 46.7661C0.75 44.226 0.75 40.9007 0.75 34.2501V19.7499Z" fill="#00005B"/>
<path id="Vector_2" d="M12 37.8669V14.2649C12 14.1044 12.0658 14.0126 12.2194 14.0126C14.4867 14.0126 16.7529 13.875 19.0209 13.875C22.7008 13.875 26.6856 15.1576 28.0823 19.0817C28.4113 20.0451 28.5868 21.0313 28.5868 22.0635C28.5868 24.036 28.1481 25.6644 27.2704 26.949C24.819 30.537 20.5699 30.4813 16.761 30.4813V37.8439C16.7908 38.0619 16.6086 38.1651 16.4319 38.1651H12.2633C12.0878 38.1651 12 38.0734 12 37.8669ZM16.7829 18.4395V26.1461C18.2933 26.259 19.8735 26.2712 21.3246 25.7792C22.9266 25.3082 23.8039 23.8948 23.8039 22.2011C23.8485 20.7579 23.0769 19.3731 21.7635 18.8524C20.3299 18.2447 18.3306 18.2083 16.7829 18.4395Z" fill="#9999FF"/>
<path id="Vector_3" d="M31.561 19.8975H35.4115C35.6238 19.8995 35.8145 20.0527 35.8705 20.2669C36.1527 20.9218 36.1876 21.7117 36.1885 22.4188C36.8489 21.615 37.645 20.9454 38.5375 20.4431C39.4947 19.8771 40.5798 19.59 41.6793 19.6123C41.8619 19.5849 42.0234 19.7539 41.9973 19.9446V24.4129C41.9973 24.5855 41.8792 24.6714 41.644 24.6714C40.0143 24.5539 37.477 24.9564 36.2928 26.2963V37.9145C36.2928 38.1362 36.1987 38.247 36.0102 38.247H31.879C31.6762 38.2774 31.4971 38.0865 31.5258 37.8776V25.2622C31.5258 23.5719 31.5609 21.8306 31.3139 20.1561C31.2759 20.0019 31.4169 19.8587 31.561 19.8975Z" fill="#9999FF"/>
</g>
</svg>
