<svg width="20" height="20" viewBox="0 0 20 20" fill="none" xmlns="http://www.w3.org/2000/svg">
<path d="M12.5003 2.08341V2.04925C11.7112 1.80133 10.8716 1.66675 10.0003 1.66675C5.39783 1.66675 1.66699 5.39758 1.66699 10.0001C1.66699 10.2813 1.68199 10.5592 1.70908 10.8334H12.5003V2.08341Z" fill="#3F51B5"/>
<path d="M12.5 4.58325H16.325C15.9262 4.11825 15.4758 3.70117 14.9846 3.33325H12.5V4.58325Z" fill="#ECEFF1"/>
<path d="M18.2915 10.8333H12.5002H1.70898C1.75148 11.2616 1.83523 11.6766 1.94023 12.0833H18.0607C18.1652 11.6766 18.249 11.2616 18.2915 10.8333Z" fill="#ECEFF1"/>
<path d="M15.9462 15.8333H4.05371C4.52329 16.312 5.05288 16.7287 5.62579 17.0833H14.3741C14.947 16.7287 15.4766 16.312 15.9462 15.8333Z" fill="#ECEFF1"/>
<path d="M17.6351 13.3333H2.36426C2.55551 13.7708 2.78301 14.1887 3.04342 14.5833H16.9559C17.2163 14.1887 17.4434 13.7708 17.6351 13.3333Z" fill="#ECEFF1"/>
<path d="M12.5 7.08325H17.7983C17.6354 6.64825 17.4396 6.23034 17.2096 5.83325H12.5V7.08325Z" fill="#ECEFF1"/>
<path d="M12.5 9.58325H18.3125C18.2913 9.15825 18.2487 8.73909 18.1662 8.33325H12.5V9.58325Z" fill="#ECEFF1"/>
<path d="M12.5 3.33325H14.985C14.2671 2.79575 13.4637 2.36825 12.5929 2.08325H12.5V3.33325Z" fill="#F44336"/>
<path d="M12.5 5.83325H17.2096C16.9525 5.38909 16.6571 4.97075 16.3254 4.58325H12.5V5.83325Z" fill="#F44336"/>
<path d="M12.5 8.33325H18.1658C18.0783 7.90242 17.9492 7.48742 17.7979 7.08325H12.5V8.33325Z" fill="#F44336"/>
<path d="M12.5 10.8333H18.2912C18.3183 10.5591 18.3333 10.2812 18.3333 9.99992C18.3333 9.85909 18.3192 9.722 18.3125 9.58325H12.5V10.8333Z" fill="#F44336"/>
<path d="M18.0604 12.0833H1.94043C2.05126 12.5137 2.19001 12.9328 2.36543 13.3333H17.6358C17.8108 12.9328 17.9496 12.5137 18.0604 12.0833Z" fill="#F44336"/>
<path d="M16.9564 14.5833H3.04395C3.3402 15.0324 3.67853 15.4508 4.05395 15.8333H15.9469C16.3219 15.4508 16.6602 15.0324 16.9564 14.5833Z" fill="#F44336"/>
<path d="M5.62598 17.0833C6.89848 17.8708 8.39348 18.3333 10.0001 18.3333C11.6068 18.3333 13.1018 17.8708 14.3743 17.0833H5.62598Z" fill="#F44336"/>
<path d="M4.27051 5.41675L4.46426 5.82841L4.89551 5.89341L4.58301 6.21425L4.65801 6.66675L4.27051 6.45341L3.88301 6.66675L3.95801 6.21425L3.64551 5.89341L4.07676 5.82841L4.27051 5.41675Z" fill="white"/>
<path d="M5.9375 5.41675L6.13125 5.82841L6.5625 5.89341L6.25 6.21425L6.325 6.66675L5.9375 6.45341L5.55 6.66675L5.625 6.21425L5.3125 5.89341L5.74375 5.82841L5.9375 5.41675Z" fill="white"/>
<path d="M2.6038 6.45339L2.9913 6.66672L2.9163 6.21422L3.2288 5.89339L2.79755 5.82839L2.79589 5.82422C2.65839 6.06089 2.53214 6.30464 2.41797 6.55547L2.6038 6.45339Z" fill="white"/>
<path d="M7.60449 5.41675L7.79824 5.82841L8.22949 5.89341L7.91699 6.21425L7.99199 6.66675L7.60449 6.45341L7.21699 6.66675L7.29199 6.21425L6.97949 5.89341L7.41074 5.82841L7.60449 5.41675Z" fill="white"/>
<path d="M9.27051 5.41675L9.46426 5.82841L9.89551 5.89341L9.58301 6.21425L9.65801 6.66675L9.27051 6.45341L8.88301 6.66675L8.95801 6.21425L8.64551 5.89341L9.07676 5.82841L9.27051 5.41675Z" fill="white"/>
<path d="M10.833 5.41675L11.0268 5.82841L11.458 5.89341L11.1455 6.21425L11.2205 6.66675L10.833 6.45341L10.4455 6.66675L10.5205 6.21425L10.208 5.89341L10.6393 5.82841L10.833 5.41675Z" fill="white"/>
<path d="M4.27051 8.75L4.46426 9.16167L4.89551 9.22667L4.58301 9.5475L4.65801 10L4.27051 9.78667L3.88301 10L3.95801 9.5475L3.64551 9.22667L4.07676 9.16167L4.27051 8.75Z" fill="white"/>
<path d="M5.9375 8.75L6.13125 9.16167L6.5625 9.22667L6.25 9.5475L6.325 10L5.9375 9.78667L5.55 10L5.625 9.5475L5.3125 9.22667L5.74375 9.16167L5.9375 8.75Z" fill="white"/>
<path d="M7.60449 8.75L7.79824 9.16167L8.22949 9.22667L7.91699 9.5475L7.99199 10L7.60449 9.78667L7.21699 10L7.29199 9.5475L6.97949 9.22667L7.41074 9.16167L7.60449 8.75Z" fill="white"/>
<path d="M2.60449 8.75L2.79824 9.16167L3.22949 9.22667L2.91699 9.5475L2.99199 10L2.60449 9.78667L2.21699 10L2.29199 9.5475L1.97949 9.22667L2.41074 9.16167L2.60449 8.75Z" fill="white"/>
<path d="M9.27051 8.75L9.46426 9.16167L9.89551 9.22667L9.58301 9.5475L9.65801 10L9.27051 9.78667L8.88301 10L8.95801 9.5475L8.64551 9.22667L9.07676 9.16167L9.27051 8.75Z" fill="white"/>
<path d="M10.833 8.75L11.0268 9.16167L11.458 9.22667L11.1455 9.5475L11.2205 10L10.833 9.78667L10.4455 10L10.5205 9.5475L10.208 9.22667L10.6393 9.16167L10.833 8.75Z" fill="white"/>
<path d="M4.6875 7.08325L4.88125 7.49492L5.3125 7.55992L5 7.88075L5.075 8.33325L4.6875 8.11992L4.3 8.33325L4.375 7.88075L4.0625 7.55992L4.49375 7.49492L4.6875 7.08325Z" fill="white"/>
<path d="M6.35449 7.08325L6.54824 7.49492L6.97949 7.55992L6.66699 7.88075L6.74199 8.33325L6.35449 8.11992L5.96699 8.33325L6.04199 7.88075L5.72949 7.55992L6.16074 7.49492L6.35449 7.08325Z" fill="white"/>
<path d="M3.02051 7.08325L3.21426 7.49492L3.64551 7.55992L3.33301 7.88075L3.40801 8.33325L3.02051 8.11992L2.63301 8.33325L2.70801 7.88075L2.39551 7.55992L2.82676 7.49492L3.02051 7.08325Z" fill="white"/>
<path d="M8.02051 7.08325L8.21426 7.49492L8.64551 7.55992L8.33301 7.88075L8.40801 8.33325L8.02051 8.11992L7.63301 8.33325L7.70801 7.88075L7.39551 7.55992L7.82676 7.49492L8.02051 7.08325Z" fill="white"/>
<path d="M9.6875 7.08325L9.88125 7.49492L10.3125 7.55992L10 7.88075L10.075 8.33325L9.6875 8.11992L9.3 8.33325L9.375 7.88075L9.0625 7.55992L9.49375 7.49492L9.6875 7.08325Z" fill="white"/>
<path d="M11.25 7.08325L11.4438 7.49492L11.875 7.55992L11.5625 7.88075L11.6375 8.33325L11.25 8.11992L10.8625 8.33325L10.9375 7.88075L10.625 7.55992L11.0562 7.49492L11.25 7.08325Z" fill="white"/>
<path d="M4.6875 3.75L4.88125 4.16167L5.3125 4.22667L5 4.5475L5.075 5L4.6875 4.78667L4.3 5L4.375 4.5475L4.0625 4.22667L4.49375 4.16167L4.6875 3.75Z" fill="white"/>
<path d="M6.35449 3.75L6.54824 4.16167L6.97949 4.22667L6.66699 4.5475L6.74199 5L6.35449 4.78667L5.96699 5L6.04199 4.5475L5.72949 4.22667L6.16074 4.16167L6.35449 3.75Z" fill="white"/>
<path d="M8.02051 3.75L8.21426 4.16167L8.64551 4.22667L8.33301 4.5475L8.40801 5L8.02051 4.78667L7.63301 5L7.70801 4.5475L7.39551 4.22667L7.82676 4.16167L8.02051 3.75Z" fill="white"/>
<path d="M9.6875 3.75L9.88125 4.16167L10.3125 4.22667L10 4.5475L10.075 5L9.6875 4.78667L9.3 5L9.375 4.5475L9.0625 4.22667L9.49375 4.16167L9.6875 3.75Z" fill="white"/>
<path d="M11.25 3.75L11.4438 4.16167L11.875 4.22667L11.5625 4.5475L11.6375 5L11.25 4.78667L10.8625 5L10.9375 4.5475L10.625 4.22667L11.0562 4.16167L11.25 3.75Z" fill="white"/>
<path d="M6.3248 3.33331L6.2498 2.88081L6.5623 2.55997L6.33272 2.52539C6.08731 2.64581 5.84939 2.77789 5.61814 2.92122L5.5498 3.33331L5.9373 3.11997L6.3248 3.33331Z" fill="white"/>
<path d="M7.60449 2.08325L7.79824 2.49492L8.22949 2.55992L7.91699 2.88075L7.99199 3.33325L7.60449 3.11992L7.21699 3.33325L7.29199 2.88075L6.97949 2.55992L7.41074 2.49492L7.60449 2.08325Z" fill="white"/>
<path d="M9.27051 2.08325L9.46426 2.49492L9.89551 2.55992L9.58301 2.88075L9.65801 3.33325L9.27051 3.11992L8.88301 3.33325L8.95801 2.88075L8.64551 2.55992L9.07676 2.49492L9.27051 2.08325Z" fill="white"/>
<path d="M10.833 2.08325L11.0268 2.49492L11.458 2.56034L11.1455 2.88117L11.2205 3.33325L10.833 3.11992L10.4455 3.33325L10.5205 2.88075L10.208 2.55992L10.6393 2.49492L10.833 2.08325Z" fill="white"/>
</svg>
