<svg width="80" height="80" viewBox="0 0 80 80" fill="none" xmlns="http://www.w3.org/2000/svg">
<g id="icons8_view_quilt 1">
<path id="Vector" d="M13.3337 66.6666H20.0003C23.6837 66.6666 26.667 63.6832 26.667 59.9999V19.9999C26.667 16.3166 23.6837 13.3333 20.0003 13.3333H13.3337C9.65033 13.3333 6.66699 16.3166 6.66699 19.9999V59.9999C6.66699 63.6832 9.65033 66.6666 13.3337 66.6666Z" fill="#FF895B"/>
<path id="Vector_2" opacity="0.35" d="M43.333 40H39.9997C36.3163 40 33.333 42.9833 33.333 46.6667V60C33.333 63.6833 36.3163 66.6667 39.9997 66.6667H43.333C47.0163 66.6667 49.9997 63.6833 49.9997 60V46.6667C49.9997 42.9833 47.0163 40 43.333 40Z" fill="#FF895B"/>
<path id="Vector_3" opacity="0.35" d="M66.6663 33.3333H39.9997C36.3163 33.3333 33.333 30.3499 33.333 26.6666V19.9999C33.333 16.3166 36.3163 13.3333 39.9997 13.3333H66.6663C70.3497 13.3333 73.333 16.3166 73.333 19.9999V26.6666C73.333 30.3499 70.3497 33.3333 66.6663 33.3333Z" fill="#FF895B"/>
<path id="Vector_4" d="M66.667 66.6667H63.3337C59.6503 66.6667 56.667 63.6833 56.667 60V46.6667C56.667 42.9833 59.6503 40 63.3337 40H66.667C70.3503 40 73.3337 42.9833 73.3337 46.6667V60C73.3337 63.6833 70.3503 66.6667 66.667 66.6667Z" fill="#FF895B"/>
</g>
</svg>
