<svg width="54" height="54" viewBox="0 0 54 54" fill="none" xmlns="http://www.w3.org/2000/svg">
<g id="Group 19">
<path id="Vector" d="M0.75 19.7499C0.75 13.0994 0.75 9.77406 2.04429 7.23386C3.18279 4.99944 4.99944 3.18279 7.23386 2.04429C9.77406 0.75 13.0994 0.75 19.7499 0.75H34.2501C40.9007 0.75 44.226 0.75 46.7661 2.04429C49.0005 3.18279 50.8172 4.99944 51.9557 7.23386C53.25 9.77406 53.25 13.0994 53.25 19.7499V34.2501C53.25 40.9007 53.25 44.226 51.9557 46.7661C50.8172 49.0005 49.0005 50.8172 46.7661 51.9557C44.226 53.25 40.9007 53.25 34.2501 53.25H19.7499C13.0994 53.25 9.77406 53.25 7.23386 51.9557C4.99944 50.8172 3.18279 49.0005 2.04429 46.7661C0.75 44.226 0.75 40.9007 0.75 34.2501V19.7499Z" fill="#470137"/>
<path id="Vector_2" d="M28.2122 16.1883L21.6615 27.2778L28.6699 39.0533C28.8156 39.3203 28.6699 39.3794 28.4588 39.3794H23.4578C23.1054 39.3794 22.8589 39.3666 22.7181 39.1257C22.248 38.1865 21.7785 37.2533 21.3092 36.3261C20.8393 35.3993 20.3404 34.4541 19.8126 33.4906C19.2842 32.5278 18.7618 31.5526 18.2453 30.5648C17.7754 31.5282 17.2528 32.4914 16.7484 33.4546C16.2433 34.418 15.7444 35.3751 15.2516 36.3261C14.7586 37.2777 14.2538 38.2229 13.7373 39.1617C13.6432 39.3785 13.4786 39.4008 13.2441 39.4008H8.41924C8.22966 39.4008 8.20678 39.2583 8.3136 39.0895L15.1108 27.6389L8.48963 16.1521C8.36937 15.9882 8.47287 15.8136 8.66577 15.827H13.6315C13.8466 15.815 14.0366 15.896 14.1598 16.0799C14.5825 17.0433 15.0521 18.0066 15.5686 18.9696C16.0847 19.933 16.6073 20.8844 17.1358 21.8232C17.6642 22.7624 18.1866 23.7136 18.6326 24.677C19.1019 23.6898 19.5774 22.7266 20.0589 21.7872C20.5401 20.848 21.033 19.9028 21.5381 18.9516C22.0429 18.0006 22.53 17.0555 22.9997 16.1161C23.0621 15.91 23.2114 15.8056 23.4223 15.827H28.0359C28.2122 15.827 28.2849 16.0675 28.2122 16.1883Z" fill="#FF61F6"/>
<path id="Vector_3" d="M38.3198 39.8484C35.2138 39.897 31.9605 38.6181 30.3251 35.7847C29.5268 34.4244 29.1276 32.7208 29.1278 30.6735C29.1144 29.0156 29.5275 27.3834 30.3251 25.9416C32.3833 22.2624 36.5297 20.8839 40.4681 21.2458V14.1297C40.4681 13.9615 40.5386 13.8769 40.6794 13.8769H45.117C45.2383 13.8591 45.3456 13.9692 45.3283 14.0936V35.4416C45.3283 36.3223 45.4157 37.2 45.4693 38.0784C45.4779 38.2284 45.3911 38.3769 45.2578 38.4398C43.0654 39.3776 40.6929 39.8376 38.3198 39.8484ZM40.4681 35.3693V25.5081C37.2514 24.6144 34.1284 27.0645 34.1288 30.4567C34.0524 33.9639 37.0757 36.387 40.4681 35.3693Z" fill="#FF61F6"/>
</g>
</svg>
